<?xml version="1.0" encoding="UTF-8" standalone="no"?>
<svg
   xmlns:dc="http://purl.org/dc/elements/1.1/"
   xmlns:cc="http://creativecommons.org/ns#"
   xmlns:rdf="http://www.w3.org/1999/02/22-rdf-syntax-ns#"
   xmlns:svg="http://www.w3.org/2000/svg"
   xmlns="http://www.w3.org/2000/svg"
   width="1600px"
   height="800px"
   viewBox="0 0 1600 800"
   version="1.1"
   id="SVGRoot">
  <defs
     id="defs1847" />
  <metadata
     id="metadata3">
    <rdf:RDF>
      <cc:Work
         rdf:about="">
        <dc:format>image/svg+xml</dc:format>
        <dc:type
           rdf:resource="http://purl.org/dc/dcmitype/StillImage" />
        <dc:title>Local AECS - Tableau</dc:title>
        <cc:license
           rdf:resource="http://creativecommons.org/licenses/by/4.0/" />
        <dc:creator>
          <cc:Agent>
            <dc:title>Frédéric Wang</dc:title>
          </cc:Agent>
        </dc:creator>
      </cc:Work>
      <cc:License
         rdf:about="http://creativecommons.org/licenses/by/4.0/">
        <cc:permits
           rdf:resource="http://creativecommons.org/ns#Reproduction" />
        <cc:permits
           rdf:resource="http://creativecommons.org/ns#Distribution" />
        <cc:requires
           rdf:resource="http://creativecommons.org/ns#Notice" />
        <cc:requires
           rdf:resource="http://creativecommons.org/ns#Attribution" />
        <cc:permits
           rdf:resource="http://creativecommons.org/ns#DerivativeWorks" />
      </cc:License>
    </rdf:RDF>
  </metadata>
  <title
     id="title5">Local AECS - Tableau</title>
  <g
     id="g988">
    <g
       id="layer1"
       style="stroke:none">
      <path
         id="path24"
         style="fill:#000000;stroke-width:0.496462;stroke:none"
         d="m 602.38053,801.0991 c -9.7337,-14.97351 -31.3802,-18.35235 -42.9546,-32.54629 -39.9553,-22.9785 -75.7535,-48.28388 -114.6798,-71.58721 -29.8613,-17.4676 -63.2043,-29.80819 -92.9314,-48.35857 -34.7867,-23.57951 -77.3675,-29.73546 -115.2389,-46.22874 -21.8873,4.23598 -26.8964,26.89869 -47.5884,32.23428 -45.4824,24.90363 -92.217398,48.14447 -137.065998,74.07149 -13.6295,11.83322 -30.8485,17.66443 -46.9606999,25.0201 -8.0384,-25.81378 20.9289999,-25.95041 35.3570999,-37.80745 41.9309,-19.61665 83.423398,-40.98927 123.799398,-64.35441 9.8736,-15.09004 33.1723,-18.55538 48.1442,-30.01784 16.7717,-6.74389 49.328,-39.87665 50.7812,-7.80026 25.1735,10.97675 51.967,16.1961 77.2029,26.37814 12.2311,-12.08065 17.065,-29.65756 31.109,-40.92103 28.0319,-27.35161 67.4056,-42.17615 105.6906,-47.20501 35.0908,-5.83196 67.8731,3.9628 95.8708,24.46584 38.5166,30.36653 47.534,84.20246 50.7477,130.31069 1.3865,27.45075 -4.3189,53.57342 -11.5751,80.55812 13.9593,2.6688 26.2451,17.19092 41.2546,25.01964 32.5811,30.89753 -58.7944,-13.5197 -44.6483,9.88742 l -6.3142,-1.11703 z m 4.5796,-9.80519 c 1.3454,-12.72939 -8.2576,4.68758 0,0 z m -9.3569,-5.11409 c -3.4847,-12.93994 -24.3629,-18.76191 -36.106,-25.99641 8.8518,11.59506 24.6269,22.39145 36.106,25.99641 z m 19.86,-17.03029 c -1.9659,-1.04335 -0.4639,1.11873 0,0 z m -57.8931,-9.83039 c -2.8301,-14.79577 -4.0619,7.32529 0,0 z m 36.9045,-2.85744 c 12.1088,-41.33039 17.4507,-86.85441 4.4917,-128.60754 -3.8994,-25.37388 -21.5315,-56.6595 -49.7698,-66.70223 -31.3911,-25.26359 -79.2969,-18.23994 -115.0563,-4.44506 -31.0172,13.57705 -68.5199,31.76395 -77.5726,66.83934 1.7482,12.29838 5.8763,-3.18213 17.9328,17.02666 33.6064,20.48306 72.4734,29.8254 105.72,51.10572 39.1523,19.69973 75.637,45.56661 114.2542,64.78311 z M 377.30903,635.55995 c -0.083,-2.41614 4.8234,0.0624 0,0 z m -1.9859,-0.65231 c 1.2684,-1.78106 1.2685,1.78107 0,0 z m -1.253,-2.02327 c 1.0658,-4.38235 1.4712,3.95706 0,0 z m 0.3739,-3.03444 c 2.9346,-1.91647 0.4192,2.0363 0,0 z m -0.3621,-3.38217 c 1.2245,-1.76855 0.6005,1.81513 0,0 z m -6.9504,-1.98585 c 1.2244,-1.7686 0.6004,1.81516 0,0 z m 1.4362,-0.78531 c 0.8415,-4.61151 1.1328,2.52119 0,0 z m 2.7837,-1.12463 c -2.6669,-7.55159 6.5858,0.93282 0,0 z m 179.8996,132.72829 c 8.0871,0.12442 -5.3251,-1.98469 0,0 z m -2.1654,-2.38057 c -5.719,-5.71632 -38.0931,-23.20657 -15.8869,-6.81961 5.6698,1.97232 11.3304,7.49084 15.8869,6.81961 z m -27.0573,-16.73332 c -2.4765,-1.80224 -1.317,1.91473 0,0 z m 93.4904,65.69062 c 2.1763,-0.71117 0.2154,0.95579 0,0 z m 4.437,-34.96949 c -3.59,-7.30822 8.5286,-7.87183 0,0 z m 2.1101,-4.4085 c -1.9085,-1.77996 -1.2724,1.83884 0,0 z m 0.993,-2.1494 c -5.7958,-19.50548 15.7366,-18.34967 0,0 z m 943.03397,-23.17033 c 1.2244,-1.76852 0.6003,1.81518 0,0 z M 32.762832,699.44801 c 1.2684,-1.78101 1.2684,1.78101 0,0 z m 409.986398,-2.82144 c 2.1762,-0.71118 0.215,0.95578 0,0 z m 366.4176,-9.06025 c 2.0151,-11.69559 26.9257,-30.40464 47.5033,-33.22336 18.0135,-4.72705 3.0273,-24.39353 9.7373,-38.42128 2.8333,-7.86172 1.6039,-21.31085 4.5284,-13.28426 -1.7531,14.08796 -5.0462,30.79642 1.1043,45.47097 -1.0548,-22.19374 20.2529,-60.48585 9.4264,-75.76041 14.494,-18.25589 -17.9967,-20.90466 -24.3589,-38.93669 -18.4472,-31.98651 -14.3988,-70.34342 -23.0677,-104.73848 11.3473,-40.2615 66.5001,-46.24713 102.2466,-46.58764 47.2655,0.50864 89.85347,38.5434 90.49617,86.39381 -1.1746,12.96722 12.7141,17.91949 8.9378,23.17068 15.6243,12.23718 35.6149,-14.63668 54.7619,-7.43473 27.3371,-5.32951 59.9938,5.30741 64.0753,36.00808 5.1386,19.5564 -6.2833,47.44481 -28.5894,56.1004 -20.0895,7.22137 -23.7214,22.93088 -5.6426,29.49222 15.2201,0.44577 28.0038,-25.51917 44.8748,-30.25283 13.3044,-12.26418 37.2244,-14.44512 21.5406,4.73242 -19.9184,11.00549 -35.0961,27.61239 -50.075,42.57595 18.4982,9.20118 12.5049,27.59659 -5.0106,11.29039 -9.0122,2.11004 -15.5195,24.3393 -20.0574,0.15677 14.0524,-15.21564 -8.4127,-24.97019 -15.985,-37.35824 -20.5753,4.96642 -62.5642,-1.24374 -44.1192,29.24804 -8.2136,31.99668 50.2061,2.65804 34.2772,23.08754 -34.9626,-9.84171 -16.9313,43.61647 -38.857,22.60778 10.0974,-29.23584 -40.6534,12.41603 -53.51517,1.72625 -10.4724,-23.44435 55.42907,-8.50094 40.74327,-34.46321 6.8923,12.9996 12.1711,6.44469 6.8411,-9.91172 1.8029,-9.02038 -14.2377,-40.45739 -18.2512,-18.3231 13.1083,37.17106 -3.7472,-18.30396 -21.158,-7.73273 -28.01597,-0.18245 -56.75987,-7.67046 -73.76317,-31.34422 -20.4702,-13.23513 -40.263,-7.82124 -33.9418,27.43025 -3.5421,15.89054 -17.5485,54.3664 9.8872,36.82761 21.4743,-7.13183 34.3003,-7.72326 8.1662,0.7794 -13.9474,4.35731 -33.9991,13.19284 -3.4453,7.72638 33.8699,-2.83722 -33.1504,23.11661 -39.4178,17.59293 -19.1846,2.75617 -39.2403,21.64317 -59.8926,25.35503 z m 59.1453,-43.72231 c -1.2683,-1.78106 -1.2684,1.78104 0,0 z m 186.17417,-4.96465 c -1.2685,-1.78106 -1.2685,1.7811 0,0 z m 1.7888,-50.43345 c 23.6014,-1.17066 21.7134,-6.7049 31.6959,-15.5534 3.0719,-12.36798 11.6575,-6.71903 23.2159,-8.88113 -15.7109,9.85519 19.5565,-4.79983 20.748,-12.65591 17.4343,-15.68579 13.8079,-60.01544 -13.9957,-51.52537 10.313,9.71319 4.4138,29.665 0.03,5.42366 -11.7778,-15.46362 -45.0273,-6.55811 -64.4349,2.75853 -12.6364,8.4636 9.2265,33.4146 -5.7496,48.13706 -8.7759,10.44383 -15.4465,31.44842 6.2057,20.71145 18.1749,-16.09179 16.2553,0.81212 -2.5169,6.12455 -13.0959,2.71706 -14.2235,8.20824 4.8019,5.46056 z m 5.4099,-3.68116 c 1.9086,-1.77992 1.2725,1.83887 0,0 z m 5.252,-0.28959 c 0.7167,-1.32226 0.2214,2.14051 0,0 z m 2.3191,-2.03849 c 1.308,-6.69431 9.6444,1.67652 0,0 z m 2.2706,-1.44465 c -2.0508,-1.68078 0.6058,3.10343 0,0 z m 3.8111,-0.48066 c -2.8633,-6.75453 8.138,2.52016 0,0 z m 31.8504,-17.80835 c 1.1062,-2.93799 0.8395,2.38747 0,0 z m 4.7415,-2.10297 c -7.3747,-3.99197 9.8134,-9.30232 0,0 z m 1.6358,-2.42543 c -1.5348,-2.68376 -0.8821,3.36957 0,0 z m 3.1029,-5.19908 c -0.8828,-6.83147 11.116,-9.49985 0,0 z m 6.3299,-9.57544 c -3.7493,-4.16944 5.5,-13.90309 0,0 z m 1.9935,-10.61069 c 0.3291,-2.94588 2.1297,0.45078 0,0 z m -1.9935,-0.66546 c 1.9383,-1.61874 1.9898,0.88125 0,0 z m -15.8013,-0.80627 c 1.3405,-3.73365 1.6427,2.02753 0,0 z m 17.058,-3.29536 c -1.3531,-3.16291 1.9261,0.69619 0,0 z m -1.0394,-5.86216 c 0.816,-4.29741 3.2988,0.6927 0,0 z m 1.6208,-5.08002 c 1.1864,-2.39166 1.676,2.34174 0,0 z m -159.50607,67.87975 c 2.9489,-2.2643 -4.4883,0.46615 0,0 z m -5.1723,-2.18095 c -1.9377,-1.81367 -1.9378,1.81359 0,0 z m 3.9718,-0.44339 c -3.5276,-4.85579 -0.4543,3.65201 0,0 z m -7.9435,-1.10462 c -1.7229,-0.85593 -0.8192,2.31786 0,0 z m 5.1917,0.0928 c -2.109,-3.17737 -1.1024,2.09807 0,0 z m 37.0906,-1.89602 c 24.24807,-6.07165 48.81887,-33.71091 41.60437,-55.54696 -3.6109,-9.55181 -11.57,-14.36749 -16.5987,-28.80301 -13.7786,-17.0323 -1.4667,-49.7298 -21.3775,-66.67757 -3.31887,-9.99723 -17.96867,-20.08666 -27.77637,-27.19181 -12.603,-6.63526 -20.4073,-5.40661 -26.8313,-12.51783 -15.4391,-2.27771 -79.0426,7.53621 -46.4086,7.20293 -17.1358,3.46049 -66.8981,20.4344 -48.8186,41.91784 1.4078,33.45589 -7.0267,81.67609 27.4162,103.26461 38.3221,16.1917 80.377,22.75105 118.7905,38.3518 z m 35.07307,-65.50013 c 2.1763,-0.7112 0.2151,0.95592 0,0 z m -32.6736,-18.03002 c -12.11437,-10.65066 30.8074,-8.00075 7.1987,-3.83107 -3.308,-0.51446 -5.1964,3.22903 -7.1987,3.83107 z M 948.61063,393.3316 c -36.74,2.36315 -11.1939,-10.22839 0,0 z m 147.64517,183.41099 c 8.6734,-5.19124 -8.7853,1.50384 0,0 z m -4.0383,-3.89311 c -1.2243,-1.76852 -0.6004,1.8151 0,0 z m 12.3862,-1.36528 c 5.5884,-6.84002 -8.0114,5.30746 0,0 z m -65.0114,-1.33598 c -1.1586,-1.7052 -1.4299,0.94611 0,0 z M 878.87803,397.4295 c 9.3509,-3.96297 -15.265,1.48086 0,0 z m 78.3012,-3.86212 c -1.7229,-0.8559 -0.8192,2.31789 0,0 z m 88.10207,271.09507 c -1.0707,-1.75936 1.3985,0.0148 0,0 z m -9.6607,-25.93204 c -12.0938,-9.90985 -0.8124,-11.46503 0,0 z m -7.6167,-9.61917 c -1.4167,-3.69463 4.9654,-0.64487 0,0 z M 888.17073,624.9783 c 1.2244,-1.76852 0.6004,1.81512 0,0 z m 90.853,-9.92927 c 1.2684,-1.78104 1.2684,1.78106 0,0 z m -315.4674,-3.08788 c -36.4833,-13.05549 14.1588,-28.66246 -3.7469,-58.72191 -4.6475,-32.03824 -43.5371,-12.12348 -64.655,-24.39292 -22.2962,-8.39174 -26.6299,-41.28868 -39.8201,-52.72205 1.6414,-32.32023 -4.156,-72.88489 23.8611,-98.28598 23.6209,-27.72042 59.6112,-48.91019 95.9443,-49.60083 37.154,7.27479 81.3257,21.4818 92.6664,62.11836 36.0021,-1.40199 10.8362,-58.13475 13.6248,-80.63245 -7.7939,-11.42691 -57.3006,-2.93621 -20.7199,-20.35505 7.331,-10.35038 38.4634,-19.44472 53.6895,-31.27725 18.9017,-2.21723 33.0291,-19.29142 52.8832,-29.03188 21.2952,-17.79045 14.4345,-12.18956 -2.1985,-12.89624 -18.7568,-9.86735 -49.8829,-4.25632 -62.3414,-21.14151 10.6521,-8.35382 40.7418,11.14651 58.6178,11.22278 12.8684,7.42983 49.2058,-1.83904 43.9534,2.69697 -3.1465,-12.72762 39.6027,10.13982 55.0913,10.29125 23.8655,11.76194 2.2963,-16.90613 24.3266,-28.33435 8.6197,-15.56337 18.90337,-32.91329 15.69987,-51.25284 49.8559,10.02199 105.7955,-0.7572 153.5319,15.97077 -1.2861,27.0013 -18.8057,54.91021 -26.4982,82.25558 -20.5929,21.74985 28.3812,32.88451 31.4013,7.39563 12.6541,-21.97684 4.5451,-48.28776 11.7353,-71.88439 -6.7293,-28.8564 50.2586,-17.30092 68.9807,-22.79227 22.7345,0.0807 54.4227,10.8298 64.6239,27.61607 -2.5186,6.29093 14.8194,20.43561 10.6614,31.72752 -2.4706,30.02623 -15.4546,58.13524 -26.4346,85.67285 24.6606,11.65216 54.8144,12.05675 77.2263,22.61588 28.348,14.81462 65.39,15.22233 96.2175,27.30385 40.0724,10.32735 77.0276,28.55271 118.4288,35.19109 23.7232,4.17158 18.3919,5.81962 23.2691,15.73169 -7.4027,14.70864 -39.16,-7.60818 -56.0044,-8.90461 -68.0885,-28.30901 -138.7492,-45.67132 -211.2656,-60.09627 -9.7749,-3.53265 -37.6113,-28.22125 -30.112,-4.15129 17.797,26.66952 26.4196,61.53095 34.5204,94.97853 4.16,9.39014 2.9554,26.00687 10.8981,33.09335 16.4014,-12.50517 19.4837,-1.29005 4.5128,1.79817 -18.9502,8.97168 14.356,11.14884 25.1837,1.19691 15.2532,-1.82691 58.7177,-33.47095 46.2645,-6.12705 -50.5089,20.95498 -104.4536,35.44672 -153.2128,58.96794 10.7835,16.84229 -3.8504,31.17291 -11.26,8.80012 -12.3276,-7.54963 -39.5845,13.17698 -52.228,19.66053 -28.8669,10.966 -30.2074,-13.55905 0,-17.17767 16.2558,-10.40887 56.6019,-11.38305 46.1593,-36.74712 -4.5878,-17.33454 -2.7041,-38.25831 -18.2871,-48.78169 6.9304,-37.58255 -25.2876,4.47425 -20.1162,-20.94013 14.5315,-19.67419 27.041,-42.22186 46.7822,-57.15106 6.1535,-12.43516 15.5989,-19.14268 22.792,-34.22222 17.1534,-32.50735 -29.774,8.50375 -17.6676,-19.70245 -36.2235,-13.80645 -81.0525,-21.72605 -119.7311,-30.68953 -17.9692,-15.53599 -37.2166,2.47072 -47.416,-12.16254 -44.042,-8.60675 -86.8871,-24.66558 -131.20887,-30.69158 -6.9137,-4.77983 -20.1618,-0.42611 -23.2873,-5.68999 -6.5592,-2.10948 -21.4564,-5.92463 -19.5618,-5.25354 -2.8902,-5.72404 -44.1487,-5.28516 -26.3545,4.82259 -9.1154,6.41654 -37.8047,12.88435 -54.4197,27.61748 -25.4205,16.7302 -57.4755,27.72438 -78.729,46.46181 57.1647,22.16473 120.5038,25.2981 178.6769,43.25824 63.09937,7.83393 123.68167,30.47278 185.90587,44.16242 24.0513,10.72247 51.2198,13.99784 74.2339,24.06994 7.7265,16.09652 -34.4125,1.72381 -45.4316,-3.52913 -36.5461,-15.13025 -75.6602,-23.61963 -114.2641,-31.78673 4.4779,29.19101 42.7935,5.4167 61.747,18.37836 -22.8405,0.77697 -54.0119,20.03548 -70.6179,10.50363 -30.3707,17.50444 -62.61127,-10.28344 -11.2773,-9.85246 33.2852,2.41244 0.8597,-36.43022 -17.5685,-31.40212 -32.17387,-8.79514 -56.07877,-19.00087 -80.36427,-2.54758 -45.1781,10.64369 -91.3006,19.86854 -134.4774,36.93358 11.5099,17.52665 28.1369,43.51676 22.5558,71.04782 -1.4885,32.11745 -35.1741,47.0904 -62.8338,52.28022 9.005,10.7263 15.4476,22.95009 21.5969,35.44062 21.1443,-3.65283 41.2105,-30.17344 61.2767,-20.93237 -11.4907,19.86761 -55.6827,26.61777 -69.5507,44.8269 -10.4344,3.73566 -35.2036,12.7292 -51.015,13.39537 3.0721,-11.29865 22.4944,-12.07403 32.3664,-21.22384 29.2854,-15.40173 1.9355,-5.49147 -14.1886,0.39419 -25.5202,4.35517 -37.4822,29.44335 -59.4731,28.06481 -6.7091,3.2252 -0.211,18.62812 -13.5681,15.12107 z m 13.6937,-28.75949 c 24.4603,-12.08518 52.633,-18.61129 75.5248,-32.12963 13.2514,6.00153 7.4673,-22.96844 -10.6456,-30.84772 -23.0968,8.21511 -77.0802,-9.60774 -72.7086,26.182 5.5863,6.57349 -5.4359,42.20209 7.8294,36.79535 z m 536.90317,-48.9522 c 1.4813,-4.46194 -2.8504,3.55864 0,0 z M 613.92863,519.42582 c 1.219,-16.10238 26.1151,-3.44038 23.7311,-10.45684 -12.9643,-15.97516 -2.0114,-2.53583 11.779,4.94292 45.8534,-3.57457 109.1254,-4.21578 130.9634,-53.06476 6.0989,-18.05476 -3.6074,-42.31352 -5.6401,-49.72133 -13.3398,-1.85359 -28.4161,-12.64611 -20.9367,-34.0579 -10.2504,-16.86177 -41.2119,-28.65082 -47.8603,-34.50488 -24.0493,-6.08276 -50.9966,-8.88613 -70.0866,7.56744 -10.1831,6.73248 -20.6872,8.63924 -29.4512,22.43918 -10.2222,14.3662 -4.4257,1.0433 -3.6863,-4.06007 -31.9724,22.04589 -30.6952,61.24729 -28.8321,97.10357 5.5364,13.64044 8.877,22.88839 30.8232,23.10927 -49.5393,9.85595 43.9723,26.82921 -9.3431,23.31517 -27.7751,-20.06515 8.2514,19.52483 18.5397,7.38823 z m -6.2602,-15.08833 c -1.0061,-1.40384 2.1641,0.6811 0,0 z M 586.63783,401.1579 c 3.1667,-5.72974 7.1122,-13.14364 10.3236,-18.00961 4.5275,-1.69099 -7.4215,21.2852 -10.3236,18.00961 z m 8.1225,-10.51077 c -0.6004,-1.81513 -1.2244,1.76859 0,0 z m -2.9788,-1.64902 c 1.0998,-2.6737 2.1885,0.32069 0,0 z m 72.8822,-35.58506 c -12.685,-9.81713 22.3732,1.40564 0,0 z m 113.6741,146.81444 c 35.8642,-11.06681 35.9414,-52.41686 25.5633,-81.6039 -16.4459,-18.70101 -26.6692,-10.00468 -16.0561,9.01016 9.604,26.10591 2.0648,52.58145 -15.9775,72.9566 2.3462,-1.19422 3.9621,0.36658 6.4703,-0.36286 z m -1.6233,-2.34404 c 1.2684,-1.78106 1.2685,1.78107 0,0 z m 16.1742,-25.11282 c 0.7167,-1.32219 0.2214,2.14047 0,0 z m -207.6564,22.66262 c -2.4355,-3.03894 0.5216,3.26396 0,0 z m 690.67707,-3.75561 c -0.4821,-2.77127 -1.9022,2.71234 0,0 z m -0.9043,-4.66199 c 9.909,-2.461 26.3163,-15.2651 36.2773,-15.69301 6.2137,-7.81987 30.0069,-14.20604 12.5725,-1.95568 -9.6084,-2.82624 -12.1341,10.64637 -23.9798,8.35709 -3.7927,0.56298 -14.651,13.64417 6.0657,3.28734 7.9473,-5.61767 44.8415,-9.22146 32.7702,-17.88211 -8.3984,1.41387 1.8764,-4.87307 -4.0762,-15.79003 -7.8923,-35.91054 -11.502,-73.23162 -29.1183,-105.51195 -11.7918,-12.71533 -26.4026,10.39982 -16.712,19.52853 5.6012,13.86333 8.8997,17.8003 13.3326,32.11602 13.52,18.92229 7.766,3.29256 8.9251,24.58193 10.5212,21.32186 -28.5272,-10.27833 -42.5913,10.62967 -17.072,8.01865 0.047,25.9695 -0.9403,41.39818 2.6277,4.62215 -0.6513,17.73111 7.4745,16.93402 z m 5.3724,-3.03322 c 1.2685,-1.78101 1.2684,1.78104 0,0 z m 38.6311,-12.75074 c 2.1763,-0.71114 0.2153,0.95576 0,0 z m 7.5401,-3.63259 c 1.2684,-1.78098 1.2684,1.78104 0,0 z m 6.1775,-5.60414 c -0.984,-7.19914 3.1049,0.96222 0,0 z m -24.3328,-55.51644 c -0.6593,-2.47496 3.346,0.56133 0,0 z m -17.4908,75.91525 c -1.9178,0.28093 1.356,2.59572 0,0 z m 22.738,-11.59692 c -0.574,-1.74682 -1.3258,1.62691 0,0 z m 8.8019,-3.00122 c -1.9659,-1.04329 -0.4639,1.11867 0,0 z m 7.4241,-5.7507 c -0.9558,0.21527 0.7114,2.17616 0,0 z m 20.0159,-6.14203 c -1.5421,-1.80049 -0.9421,2.49991 0,0 z m 14.3975,-7.60799 c -5.0792,-3.62705 -1.2121,1.98254 0,0 z m -106.2434,-26.12227 c 20.6859,-5.8833 49.2508,-11.9857 31.7581,-32.51931 -9.9132,-10.25898 -8.0166,-38.27952 -23.3051,-15.64281 -7.0361,12.75556 -33.5881,27.34557 -16.0815,41.45895 1.8506,3.01471 1.4428,10.25612 7.6285,6.70317 z m 336.0161,-33.87805 c -8.3406,-5.144 -15.8125,0.23024 0,0 z m -12.3213,-2.80718 c -1.9382,-1.61879 -1.9899,0.88125 0,0 z m -783.17247,-4.04729 c 48.8261,-16.48116 97.1079,-23.33573 146.0551,-36.75128 -50.6284,-12.08096 -103.4463,-22.62141 -155.079,-32.3126 8.4444,20.51606 -0.2248,56.50013 9.0239,69.06388 z m 443.83907,-0.22567 c -0.6004,-1.81513 -1.2244,1.76849 0,0 z M 888.66723,359.91298 c -2.6252,-0.85209 -2.6198,1.52914 0,0 z m -264.9789,-5.50762 c 5.978,-3.17178 -4.1803,0.64876 0,0 z m 344.7523,-9.52589 c -0.9558,0.21537 0.7113,2.1762 0,0 z m -22.1836,-3.87864 c -1.9967,-4.90149 -2.8605,1.47634 0,0 z M 1276.668,290.4854 c 9.2486,-16.87767 19.355,-41.8478 23.4292,-61.80944 12.6576,-23.4588 -2.8433,-63.05624 -32.4855,-66.88737 -26.3191,-2.8019 -88.1711,-13.52436 -88.2823,22.05941 -5.7524,25.98665 -0.721,53.99696 -17.1098,77.32966 35.3887,14.13332 75.253,20.45898 112.6974,30.49288 l 1.7516,-1.18495 z m -37.4039,-124.76759 c 1.5566,-2.77178 1.6412,1.81021 0,0 z m -1.5825,-0.49473 c 1.4299,-0.94609 1.1586,1.70528 0,0 z m -4.0958,-0.79597 c 2.7339,-0.80584 0.4961,0.86897 0,0 z m -23.458,-1.16059 c 1.2771,-1.8159 2.5044,1.69303 0,0 z M 765.54403,287.3826 c -1.2684,-1.78101 -1.2684,1.78099 0,0 z m 50.6695,-23.11766 c 19.0755,-13.46578 -0.3403,-6.15998 0,0 z m 294.74557,-13.09622 c 11.1852,-30.10657 25.8556,-59.6863 32.1286,-91.14779 -42.6593,-12.84431 -89.0613,-6.99867 -133.122,-9.47004 -4.6715,26.5003 -20.87787,49.33068 -33.63197,72.05364 45.90827,4.36698 89.09207,23.34575 134.62537,28.56419 z M 1007.8186,185.6682 c -11.99397,-7.05232 5.2301,-6.62913 0,0 z m -158.60717,56.13556 c -2.0701,-0.51203 -0.072,1.75027 0,0 z m 86.6199,-24.42264 c -1.2685,-1.78103 -1.2684,1.78105 0,0 z m -69.0086,-4.96464 c -2.2994,-3.89754 -4.7297,-0.72306 0,0 z m -4.757,-0.30133 c 2.7897,-2.44733 -4.3649,0.51337 0,0 z m 6.7429,-0.19504 c -1.2725,-1.83883 -1.9085,1.77991 0,0 z m -11.2452,-1.53658 c -3.0043,-6.51415 -9.3995,2.07934 0,0 z m -7.6205,-1.93868 c -1.2685,-1.78104 -1.2683,1.78108 0,0 z m -1.9758,-0.75669 c 2.3232,-3.20265 -7.1204,2.95426 0,0 z m -10.684,-1.72562 c -0.6004,-1.81513 -1.2244,1.76853 0,0 z m -18.5782,-4.09584 c 3.9272,1.19554 -3.2458,-1.84709 0,0 z m 161.8082,407.7213 c 1.2243,-1.76858 0.6005,1.81515 0,0 z m -281.31,-8.69695 c -0.8472,-15.05772 43.5407,-20.76065 0,0 z m 414.36237,-4.2404 c 1.4299,-0.94607 1.1586,1.70521 0,0 z m -242.08427,-3.14332 c -0.3857,-20.22629 7.5016,-19.98395 0.8027,-0.0838 l -0.5689,1.06696 -0.234,-0.98324 z M 4.9607321,579.60893 c 5.8296999,-9.49173 12.0599999,-22.91817 16.9368999,-38.06719 5.2357,-17.88923 20.4416,-31.57242 23.2767,-49.27773 2.9414,-12.9226 -50.9706999,34.63211 -39.9676999,0.63725 21.1892999,-9.41224 45.9857999,-18.74439 62.5656999,-34.35438 -20.6305,-12.41862 32.462698,-22.54132 8.5641,-35.3869 -20.2622,-18.54532 -50.5451,-29.0359 -58.4702,-57.84134 10.6774,-8.52342 20.2333,22.08665 34.7793,26.33147 13.0652,11.38941 27.4467,21.95399 40.3412,32.80633 30.991098,-24.96847 61.020698,-73.23151 39.920498,-112.52666 -19.6369,-13.99453 -45.370498,-24.20743 -65.764298,-5.30291 -26.0621,8.64459 -11.5415,28.82262 -23.4414,39.33848 -15.3527,-18.08534 2.5378,-45.12335 22.9847,-51.66841 16.6161,-11.11755 37.628998,-16.09898 53.710298,-0.66226 40.1816,14.1499 31.828,69.0034 13.0779,98.81265 -16.234,25.62128 -28.8411,40.065 -26.5151,60.2294 -43.888798,13.76802 -53.394998,66.24431 -63.274498,104.75929 13.2577,-2.36119 24.0157,-12.60734 38.7243,-10.56543 34.717498,-11.16853 2.6196,16.54568 -15.3904,16.21862 -21.7965,7.62945 -40.5486,13.29739 -62.0580999,23.77558 1e-4,-2.41863 1e-4,-4.83726 1e-4,-7.25586 z M 25.688132,565.75931 c 8.7451,-5.50671 8.4064,-38.87354 15.8573,-50.85755 -8.0137,14.54975 -24.9252,34.86767 -17.2841,51.04841 l 1.4268,-0.19081 z m 62.0661,-117.515 c 5.8645,-6.79574 -12.3516,3.98601 0,0 z M 876.25563,573.84248 c 1.2684,-1.78104 1.2684,1.78107 0,0 z m -1.4894,-2.48231 c 0.1942,-5.23782 4.7826,-0.23032 0,0 z m 175.25187,-82.25346 c -21.6424,-3.40261 24.7454,-1.44783 4.0958,-0.43778 l -4.0958,0.43807 z m -11.7612,-1.36676 c -1.985,-2.66886 3.9231,1.26796 0,0 z m 2.0647,-0.30719 c 0.997,-2.36519 1.4234,1.6081 0,0 z M 833.33263,459.68998 c -0.5579,-1.91655 1.9248,0.31196 0,0 z m -0.4697,-6.41075 c -0.4788,-2.34934 2.1205,0.99178 0,0 z m 535.15857,-9.39422 c 7.4678,-10.53862 23.3922,-1.37385 0,0 z m 8.1736,-1.06288 c 2.1388,-6.05225 8.3464,-0.79595 0,0 z m 5.9576,-2.77677 c 1.2308,-2.61587 1.231,2.61582 0,0 z m -5.6406,-0.99295 c 1.1783,-2.60496 0.4296,2.62235 0,0 z m 5.8888,-1.24117 c 0.6005,-1.81513 1.2244,1.76857 0,0 z M 67.368032,437.44701 c -6.9721,-5.80294 7.374,-7.27475 0,0 z M 1377.4363,437.33296 c -1.381,-2.60708 5.5052,1.6708 0,0 z m 9.8931,-0.90309 c -5.5157,-4.51908 5.6548,-6.37593 14.8396,-9.71988 7.4201,-2.63188 -0.3551,4.17352 -6.8311,3.20444 13.3978,2.94471 -8.4525,4.14583 -8.0085,6.51544 z m 5.8682,-4.81886 c -1.4501,-3.75236 -0.2289,4.26105 0,0 z M 70.990532,432.34989 c 1.2245,-1.76849 0.6003,1.81521 0,0 z M 1406.8518,425.57073 c -4.0106,-3.83589 17.2428,-11.3694 9.3085,-4.66903 -6.0651,-0.73605 -4.0579,7.72855 -9.3085,4.66903 z m -323.1672,-41.22037 c 2.1762,-0.71114 0.2152,0.95572 0,0 z M 21.344032,380.9661 c 1.2309,-2.61589 1.231,2.61587 0,0 z m -0.4964,-2.20479 c 0.8822,-3.36952 1.5348,2.68381 0,0 z M 1078.7199,352.08027 c 2.1762,-0.71114 0.2153,0.95579 0,0 z m -30.6877,-5.09201 c 3.4379,-2.52911 6.3575,2.58972 0,0 z m -4.2149,-0.5345 c 1.5338,-1.46228 0.3885,1.7722 0,0 z m -15.3267,-4.21184 c 1.1303,-2.76936 2.2048,2.67497 0,0 z m -2.3959,-1.08387 c 2.1762,-0.71112 0.2154,0.95574 0,0 z m -290.15347,-6.15807 c -9.7197,-30.12832 4.9574,-65.5535 -5.0256,-95.50951 -28.2246,-5.8695 -54.476,-9.09622 -51.1668,32.62591 -0.046,26.9976 -14.7769,66.93084 -9.2866,18.49332 7.0908,-21.67708 -4.3987,-6.71991 5.2425,-38.22774 19.9488,-25.22908 -28.2239,-42.31632 -41.0429,-24.38118 -32.277,28.66576 -57.0445,64.65662 -85.6104,96.13905 -13.7304,-6.48622 9.1086,-14.27861 10.1813,-22.80065 12.0845,-16.11569 33.7236,-44.28195 53.3249,-61.13427 21.1124,-24.22613 -5.9429,-26.62044 18.1639,-50.4436 3.5207,-12.67355 15.9089,-31.32266 -1.88,-26.65145 -19.9122,-4.1677 -42.0494,-12.07639 -60.8757,-12.25492 -33.08,23.72682 -70.1706,41.15841 -102.2892,65.62639 -0.8011,12.50644 2.358,58.80564 21.9038,41.26617 16.28,-13.12059 51.1921,-16.62227 38.1293,-46.05028 -2.0196,-56.47004 9.7277,-16.39456 11.4598,15.90282 8.5347,-6.46354 34.6056,-16.62641 49.2327,-28.51121 36.7055,-21.03538 -11.3888,24.2162 -28.2906,26.6781 -35.9654,-4.77124 -3.7,68.72434 -23.4235,27.63755 -6.8783,-22.87497 -27.4184,7.99671 -40.6273,11.38978 -25.3832,8.86177 16.9224,37.43562 -21.9272,14.83052 -12.7753,19.985 -54.3568,28.21057 -21.647,3.04142 34.5505,-7.96293 8.0043,-42.5082 3.4049,-59.93607 -39.0614,22.86756 10.6196,-24.51608 6.899,-23.49814 9.9389,14.1499 39.8218,-20.23937 57.6008,-24.54641 7.7703,-8.37377 52.162,-25.67246 22.4022,-27.59128 -76.0876,-5.12422 -152.023,-16.02866 -227.2802,-29.43194 -25.3025,-7.75937 -64.8164,9.66472 -36.8593,31.89824 -17.2268,46.4151 46.3556,5.64202 43.0768,43.85213 0.1241,16.02441 25.0157,15.90147 34.921,7.47671 36.4445,-12.96259 31.4074,43.67907 51.1751,37.34364 28.6782,-15.9186 39.0396,18.94987 13.1831,33.26305 -16.6305,2.16461 -87.8907,5.66963 -52.1263,21.59379 25.6291,-7.43637 51.892,-18.94388 77.9224,-21.12919 -9.4696,14.91763 -38.5197,12.60416 -55.8254,21.67059 -20.3143,3.86596 -35.4684,18.31352 -55.7392,18.53493 -29.1995,17.70903 -29.738,-3.09503 0.055,-8.63014 28.4347,-4.75089 7.3879,-35.19235 -11.2766,-21.9447 -43.761,19.9796 8.5587,-11.44429 -3.5033,-38.89047 21.8486,-32.37575 -11.8898,-33.9112 -34.2488,-20.20183 -1.594,9.86467 7.8462,27.7762 -18.6628,22.93242 -13.6812,-8.86126 -64.2029,27.24087 -44.1853,-5.21287 9.0862,-29.34567 -33.8706,-14.43267 -49.1499,-12.43614 -30.9658,11.20025 -28.4035,-3.32211 -4.7078,-17.87305 11.3438,-24.93787 14.3694,-50.90159 33.2805,-71.60521 16.7733,-20.42833 68.285,-18.46047 65.3817,-16.35963 18.7458,-14.43476 18.9071,-18.4804 -3.8647,-10.95229 10.9627,-11.111737 32.4727,-16.523527 44.2452,-2.84111 16.7624,5.4175 24.8632,5.67116 28.0178,-14.637477 11.9231,-11.82622 13.7099,-29.12497 19.8488,-41.32816 27.9171,3.81124 69.8876,-14.32354 83.6043,21.70788 18.1689,23.12235 -45.6944,57.780417 -7.3095,54.095367 26.0223,8.70688 32.2952,-25.88363 40.8327,-44.404397 25.7207,-50.67507 101.8673,-2.43638 56.2724,40.774367 -28.2925,17.38426 38.5277,15.93798 37.6354,17.77409 13.8512,-11.5936 47.2767,16.6936 71.0134,14.89307 12.3722,-5.69931 17.3534,-30.34827 21.7023,-40.62145 -0.2512,-12.18674 8.1014,-19.594487 4.1089,-23.851557 5.5634,-8.67042 6.511,-13.41043 10.6124,-30.0603 3.8208,-17.00271 1.4096,-27.01618 14.8629,-38.43083 19.3394,11.28687 45.9636,14.36656 65.613,28.27601 5.786,3.70881 25.3465,9.88638 34.7381,18.09029 19.881,9.05574 63.3128,13.82351 20.2237,15.0872 -21.9938,-8.27417 -36.5871,-23.68135 -59.6051,-30.51213 -15.843,-9.69274 -40.3569,-18.78552 -61.232,-20.81707 -11.2115,30.76877 -17.2021,65.833287 -30.7829,94.524897 0.3242,5.87172 -12.804,32.6704 3.0358,38.73969 -21.0495,-3.04003 -17.8155,25.57488 -25.786,40.21732 37.9208,16.33587 81.2959,25.88251 120.8098,32.17838 -25.4365,1.06783 -13.8462,53.09131 -12.4115,80.55133 -0.2016,4.46733 3.3192,18.03123 -6.4683,14.60223 z m -169.356,-39.67396 c 4.4774,-4.51741 -5.7971,1.7907 0,0 z m 109.0988,-23.37189 c 0.5364,-12.24384 -5.5779,7.45755 0,0 z m 1.5108,-5.68353 c 0.33,-20.115 -3.5144,4.13992 0,0 z m -344.5241,-0.42599 c 12.7917,-5.7079 49.7287,9.35893 52.3334,-20.89186 4.9293,-35.03875 -27.7484,-27.59062 -48.9651,-21.13263 -6.1025,6.91056 -21.0118,49.11908 -3.3683,42.02449 z m 61.2698,1.4194 c 45.6094,1.22824 30.9929,-40.98942 -0.053,-13.81419 0.2135,5.40586 -15.3696,17.30997 0.053,13.81419 z m 202.9298,-1.06171 c 2.4483,-4.43747 -3.7169,-1.76269 0,0 z m 81.6581,-8.90752 c -1.9659,-1.0433 -0.4641,1.11864 0,0 z m 2.1202,-5.18128 c -1.0132,-11.39316 -5.105,7.14123 0,0 z m 0.6999,-6.50644 c 3.1633,-10.85207 -3.194,-0.28238 0,0 z m 69.7981,-5.67319 c -2.2214,-2.34922 -2.567,2.71317 0,0 z m -512.5994,-1.11094 c 42.7569,0.93975 36.3698,-24.38782 -6.1364,-14.73954 1.091,5.88774 -8.9951,22.63607 6.1364,14.73954 z m 384.9766,-6.63652 c -1.7651,-0.83901 -2.6132,6.15405 0,0 z m 6.982,-7.45279 c -3.3887,-0.42493 0.01,1.99372 0,0 z m 5.6174,-4.63876 c 4.0066,-7.87252 -6.192,4.2292 0,0 z m -3.46,-1.8267 c 10.058,-9.31017 -10.769,2.72849 0,0 z m -447.5548,-0.41763 c 40.9326,-1.44051 -32.4258,-10.00534 0,0 z m 79.5032,-3.19948 c 34.3069,9.70431 70.7598,-41.3345 15.7719,-30.03669 -9.7157,-7.22804 -39.0597,43.84749 -15.7719,30.03669 z m 19.397,-20.72787 c 1.2712,-2.83061 0.3334,5.22473 0,0 z m 1.2537,-0.17927 c 1.0605,-1.88478 2.8101,1.69875 0,0 z m -89.9575,13.78884 c 20.0189,1.94291 57.9893,9.79959 63.5406,-17.12691 4.2674,-16.90326 23.9565,-51.70363 -13.7552,-53.87822 -33.3177,-12.19398 -53.4271,23.8004 -52.5123,51.60088 -26.8004,-2.40474 -0.2086,25.149 2.7269,19.40425 z m 12.7098,-10.50654 c 1.2245,-1.76853 0.6004,1.81516 0,0 z m 357.7157,-51.53652 c -2.0701,-0.51206 -0.072,1.75029 0,0 z m -57.0157,-11.45237 c 22.3681,-17.70043 42.8458,-71.292707 -6.2967,-60.951647 -33.5928,-3.04102 -27.3144,40.151827 -44.5908,57.171047 16.1975,-0.28811 35.9318,8.49359 50.8875,3.7806 z m -1.5675,-10.96381 c -0.079,-2.43485 2.3812,1.17673 0,0 z m -6.2186,-2.03576 c 1.43,-0.94607 1.1587,1.70526 0,0 z m -3.1985,-0.75598 c -2.2233,-2.33274 3.6905,2.09249 0,0 z m -11.1989,-1.20058 c 1.2685,-1.78104 1.2684,1.78106 0,0 z m 1.6385,-0.44223 c 0.05,-2.28739 3.048,2.04443 0,0 z m -2.8797,-0.55069 c 0.6004,-1.81517 1.2245,1.76853 0,0 z m -231.1041,11.49836 c 5.3902,-4.87053 -3.1601,0.83144 0,0 z m 143.779,-5.62738 c 14.6833,-11.13897 31.9983,-17.56514 35.4446,-38.885867 -4.4388,-33.53949 -51.9234,-30.32099 -73.4125,-20.38064 -5.3582,0.94736 -13.6112,22.52583 -8.4688,27.08294 -35.1515,26.992247 16.5537,27.225107 39.6819,31.277247 2.1156,0.88557 4.4513,1.39374 6.7548,0.90632 z m -31.8263,-8.86888 c -28.161,-7.9064 33.5104,-3.46881 0,0 z m 46.4194,2.19609 c 3.3249,-7.43724 -5.8404,6.00029 0,0 z m 3.9717,-3.22851 c -1.723,-0.85582 -0.8192,2.31786 0,0 z m 392.7267,-30.998677 c -7.5979,-4.26738 -4.0445,1.53947 0,0 z m -23.3572,-12.13512 c -0.6005,-1.81511 -1.2244,1.76852 0,0 z M 1276.659,332.56894 c 0.479,-4.58089 1.9497,1.6677 0,0 z m 101.8634,-13.2787 c -3.8053,-2.8548 7.9032,0.34154 0,0 z m -93.4285,-4.10565 c 1.9085,-1.77996 1.2726,1.83884 0,0 z m -0.2325,-2.57715 c -0.05,-3.25976 1.7896,0.7585 0,0 z m 2.8125,-2.58265 c -1.3847,-3.21852 1.838,0.7739 0,0 z m 23.6084,-10.61212 c -2.4205,-11.14 21.0457,-3.33104 0,0 z m -579.16687,-6.40351 c -1.2054,-5.08476 0.7808,-3.93919 0,0 z m -0.4375,-4.47252 c -1.3566,-6.16363 4.1345,-5.93222 0,0 z m 591.89187,-6.11869 c 1.2684,-1.78106 1.2685,1.78102 0,0 z m -592.28177,-5.95757 c 0.315,-5.20823 1.0432,5.217 0,0 z m -535.685,-19.39141 c 1.4299,-0.94607 1.1586,1.70525 0,0 z m 572.5618,-3.73049 c -4.8422,-18.87772 10.4728,-39.25137 19.9297,-56.04132 -17.0647,21.7711 5.8319,-12.96397 4.2521,-18.73486 0.936,11.51517 13.8611,-26.07043 11.301,-35.27997 1.1971,-8.79085 20.4031,-54.189427 16.9279,-35.08273 -11.7612,45.01284 -31.2203,88.5215 -43.6706,133.61599 -0.9606,4.8898 -0.4065,14.93733 -8.7401,11.52289 z m 21.5363,-60.03587 c 7.9365,-15.41589 -5.9768,-0.78758 0,9e-5 z m 26.7305,-77.20021 c -0.6166,-1.95724 -1.7814,1.89016 0,0 z m 11.6669,136.52771 c 1.2244,-1.76859 0.6005,1.81513 0,0 z m -319.4747,-8.43991 c 1.2244,-1.76854 0.6004,1.81515 0,0 z m 471.8893,-14.92323 c 1.4299,-0.94607 1.1585,1.70527 0,0 z m -578.9209,-11.03282 c -3.0931,-3.05927 6.3405,-1.27324 0,0 z m 148.8201,0.27836 c 8.6772,-8.90878 3.2386,-0.66216 0,0 z m 376.7521,-1.59353 c -0.5579,-1.9166 1.9248,0.31193 0,0 z m -528.6587,-1.05558 c 0.3615,-3.10656 1.5108,3.71411 0,0 z m -4.9989,-0.89521 c -1.6284,-5.06759 6.1196,2.34147 0,0 z m 271.9046,-8.03106 c -15.9653,-20.70896 113.8099,-3.2901 56.1591,-0.46667 -21.3614,-4.51194 -30.5037,2.2948 -56.1591,0.46667 z m 28.0242,-3.21973 c -19.7562,-4.46198 -2.9772,4.03707 0,0 z m -13.2834,0.26376 c -18.5391,-6.23555 -11.062,0.92725 0,0 z m -111.208,2.03983 c 0.8191,-2.31786 1.7231,0.85582 0,0 z m 12.7693,-11.6826 c -1.5257,-2.9654 5.8896,1.26025 0,0 z m 170.6742,-19.20946 c -14.0242,-2.97439 -69.435,-6.12853 -33.5725,-2.2055 -9.3414,7.32902 -76.8212,-4.51056 -16.8402,-6.26918 5.8433,0.38886 69.9663,-2.90811 50.4127,8.47468 z m -56.5295,-4.66067 c 5.1967,-3.02707 -6.6441,1.73666 0,0 z m -361.2452,3.69112 c 1.43,-0.94607 1.1587,1.70527 0,0 z m 457.3802,-0.96271 c 3.9042,-19.4178 11.6544,-10.70144 0,0 z m -466.5648,-5.59473 c -38.9722,-5.91396 50.8723,-0.24878 0,0 z m 472.3858,-7.09527 c -2.1439,-7.47435 2.6434,2.18287 0,0 z m 1.2923,-1.62558 c 1.2426,-1.5411 1.8425,1.49537 0,0 z M 294.39943,148.2643 c 5.0051,-1.26304 0.8048,1.64696 0,0 z m 477.2263,-4.20282 c -22.6341,-1.29437 -116.4165,-2.69456 -90.2324,-13.03938 23.8031,4.82847 52.5391,7.58272 78.1932,7.32177 -36.1377,-0.97819 34.6201,-5.40993 12.0392,5.71761 z m -9.5569,-3.07795 c 5.298,-2.88161 -4.8559,-1.08484 0,0 z m -92.5906,-8.49781 c -0.6005,-1.81514 -1.2244,1.76859 0,0 z m -84.8954,2.97879 c 0.6005,-1.81514 1.2244,1.76858 0,0 z m -38.7254,-8.4417 c -8.976,-1.43512 5.7931,-1.34448 0,0 z m -16.3659,-0.46844 c 0.2355,-2.73552 3.5129,-0.44365 0,0 z m 3.2347,-0.47802 c 2.4815,-2.38434 3.4649,3.12019 0,0 z m 16.3594,0.75315 c 4.3381,-1.97047 0.9765,1.37442 0,0 z m 213.1073,-0.48002 c 1.3775,-16.16647 39.3852,-8.69476 14.3102,-26.682057 -36.1011,-13.55407 -7.4793,16.199397 -8.1405,16.674257 -27.3932,-2.07846 -12.827,-16.586227 -37.1502,-7.96237 -32.9982,3.61905 13.3834,-35.868157 -12.9078,-16.019937 -9.2273,-31.43063 70.6486,-11.46604 17.3234,-12.32982 -12.4074,21.633577 40.603,-2.92118 47.7884,20.124047 8.7121,-14.871147 14.8066,4.19386 8.564,6.01065 17.2086,-11.804787 -15.0914,26.39882 -29.7875,20.18523 z m -16.8981,-26.561137 c 4.8065,-16.68719 -32.865,9.935497 0,0 z m 4.0454,3.157747 c -0.1486,-2.56554 -2.9226,2.49967 0,0 z m -0.4683,-2.03897 c 15.6981,-10.424447 18.8922,-13.857677 0,8e-5 z m -212.7445,25.09358 c -0.5732,-3.89838 11.4793,3.09802 0,0 z m 117.9678,-4.56131 c 4.422,-31.980807 3.7565,8.76255 0,0 z m 168.0533,-8.19165 c -0.5484,-2.87941 3.3058,0.8191 0,0 z m -164.8185,-0.86881 c 0.083,-5.01918 2.0803,1.3413 0,0 z m 39.7019,-3.36204 c 5.9738,-28.506067 -46.9399,14.8913 -10.3401,-27.179207 25.7796,-32.2391 31.6646,-6.98883 21.9579,12.7599 -10.8251,-0.90778 0.2294,24.010727 -11.6178,14.419307 z m 2.7439,-4.78764 c 13.1248,-33.731707 -20.663,-5.265257 5.2286,-31.422427 -21.0386,18.86858 -32.747,26.85059 -5.7299,21.82853 -0.3263,-2.68961 -2.287,14.920607 0.5013,9.593897 z m 5.1996,-24.616967 c -0.482,-2.77125 -1.9022,2.71228 0,0 z m 118.3119,30.904897 c -0.5676,-11.235007 16.7617,-59.875967 13.0752,-26.529897 -4.5334,7.83375 -7.3413,21.405927 -13.0752,26.529897 z m -76.6089,-1.86174 c 1.2685,-1.78104 1.2684,1.78107 0,0 z m -86.6138,-8.54892 c 1.2655,-6.177537 0.3339,5.77689 0,0 z m 55.3365,-0.558717 c 5.3514,-11.615 0.181,7.100757 0,0 z m -451.5532,0.637127 c -16.0415,-15.429297 -45.0015,-21.156117 -60.5696,-22.523857 6.0531,10.9032 -22.2991,-13.18684 -34.975,-10.12941 -50.7498,-15.11797 -99.544898,-37.54665 -150.905998,-49.24831 -31.1439,-10.6289301 4.0297,-19.07203014 21.0462,-6.46204 43.6429,10.95355 83.633198,30.70444 128.429498,38.25153 25.5617,2.76846 14.8343,8.22212 26.3599,13.89921 17.254,-1.73888 39.0962,11.62377 57.8501,18.18368 8.5418,3.51319 37.9459,12.06137 12.7649,18.029197 z m -83.2291,-42.535537 c -8.3406,-5.14402 -15.8125,0.23015 0,0 z m -12.3213,-2.80721 c -1.9383,-1.61877 -1.9898,0.88127 0,0 z m 653.347,44.14779 c 0.7414,-1.82507 2.3136,1.979797 0,0 z m -386.001,-1.25674 c 0.6004,-1.81513 1.2244,1.76853 0,0 z m 227.6289,-8.96567 c 1.4299,-0.94601 1.1586,1.70525 0,0 z m 81.4201,-36.90416 c 0.2263,-1.33306 2.9358,0.44496 0,0 z" />
    </g>
    <rect
       style="fill:#000000;stroke:none;stroke-width:0.755906;stroke-dashoffset:0.5"
       id="rect12"
       width="29.003799"
       height="8.5640898"
       x="789.70111"
       y="193.30261" />
    <rect
       style="fill:#000000;stroke:none;stroke-width:0.755906;stroke-dashoffset:0.5"
       id="rect14"
       width="21.506409"
       height="9.8328333"
       x="263.84793"
       y="100.18493" />
    <rect
       style="fill:#000000;stroke:none;stroke-width:0.755906;stroke-dashoffset:0.5"
       id="rect19"
       width="25.758301"
       height="1.8817199"
       x="751.14661"
       y="239.93387" />
    <rect
       style="fill:#000000;stroke:none;stroke-width:0.755906;stroke-dashoffset:0.5"
       id="rect30"
       width="16.347233"
       height="10.069184"
       x="426.58002"
       y="229.43623" />
    <rect
       style="fill:#000000;stroke:none;stroke-width:0.755906;stroke-dashoffset:0.5"
       id="rect41"
       width="0.50400001"
       height="14.257767"
       x="821.64453"
       y="98.989975" />
    <rect
       style="fill:#000000;stroke:none;stroke-width:0.755906;stroke-dashoffset:0.5"
       id="rect43"
       width="15.060174"
       height="2.8027279"
       x="821.30237"
       y="81.184555" />
    <path
       style="fill:#de8787;stroke:none;stroke-width:0.904599;stroke-dashoffset:0.5"
       d="m 726.8493,234.27383 c -41.20548,-8.28862 -92.07512,-24.01968 -91.06817,-28.16217 3.17444,-13.05931 8.08937,-28.85324 9.88099,-31.75214 2.55348,-4.13161 6.79397,-6.50743 11.68663,-6.54769 l 3.23465,-0.0266 -2.55254,-2.06764 c -1.40389,-1.1372 -3.15408,-3.2439 -3.8893,-4.68155 -3.23635,-6.32834 -0.38981,-22.0144 7.87787,-43.41163 2.91452,-7.54292 8.78116,-25.852567 13.03699,-40.688105 10.90309,-38.007445 12.27595,-41.936438 14.64474,-41.911786 3.49464,0.03637 18.44479,3.473707 26.51384,6.096065 4.28669,1.393127 14.52546,5.625401 22.75284,9.405056 8.22737,3.779654 17.3822,7.890821 20.34405,9.135928 2.96186,1.245107 11.03964,5.687597 17.95064,9.872201 6.91099,4.184606 16.62289,9.653041 21.58199,12.152081 8.83801,4.453728 9.21959,4.531039 19.26944,3.904051 l 10.25289,-0.639655 -2.51552,9.90429 c -1.70315,6.705824 -2.63778,8.882274 -2.89417,6.739534 -0.37734,-3.153743 -2.61311,-4.548109 -2.61311,-1.629702 0,0.844272 -1.82951,5.017802 -4.06559,9.274492 -5.97104,11.36675 -12.66746,30.21342 -12.82992,36.10903 -0.25042,9.08781 -1.41323,12.32949 -4.38441,12.2229 -1.46613,-0.0527 -2.54502,0.48591 -2.39753,1.19671 0.1475,0.71078 -0.60484,2.63863 -1.67187,4.28411 -1.06702,1.64547 -2.33221,4.86602 -2.8115,7.15677 -0.7998,3.82245 -0.70454,4.02647 1.15814,2.48058 2.74895,-2.28142 5.63159,-8.05931 5.20852,-10.43983 -0.18973,-1.06755 0.35169,-2.1842 1.20313,-2.48145 1.14444,-0.39953 1.33557,0.34816 0.733,2.86763 -1.59836,6.68322 -6.15093,16.56684 -7.49548,16.27269 -0.75213,-0.16454 -1.3675,0.41306 -1.3675,1.28357 0,0.87051 -2.42732,6.56993 -5.39405,12.66539 -2.96671,6.09546 -5.12819,11.51282 -4.80325,12.03856 0.32491,0.52575 -2.04745,6.00059 -5.27195,12.16632 -3.22449,6.16572 -6.53346,13.49912 -7.35325,16.29642 l -1.49054,5.08602 -10.28178,-0.084 c -6.58955,-0.0539 -17.42691,-1.52131 -30.17892,-4.08642 z m -19.59425,-28.39344 c 1.31638,0.028 7.24009,0.17686 13.1638,0.33077 11.50381,0.29889 16.56859,-0.62004 15.83013,-2.87217 -1.92125,-5.85933 -58.90313,-9.14761 -68.78451,-3.96938 -3.68737,1.93234 -5.01428,5.17583 -2.99177,7.31306 0.49364,0.52165 9.7831,0.54307 20.64323,0.0476 10.86014,-0.49545 20.82274,-0.8779 22.13912,-0.8499 z m 11.26579,-32.27183 c 1.80698,-1.12849 5.86928,-1.10066 18.67102,0.12783 14.45672,1.38731 16.57394,1.35774 18.1857,-0.25403 4.32588,-4.32588 -2.25788,-6.33075 -24.18833,-7.36574 -15.48326,-0.73071 -48.36439,0.73601 -52.35602,2.33545 -3.25442,1.30403 -2.49848,2.65748 2.38435,4.26896 10.61315,3.50265 32.28997,4.01839 37.30328,0.88753 z m 55.45074,-30.17346 c 3.27265,-2.4843 2.54522,-5.22516 -1.63017,-6.14223 -2.04842,-0.44991 -8.10676,-0.65632 -13.46298,-0.45869 -22.24153,0.82064 -45.16907,-0.70729 -66.57366,-4.43656 -11.35315,-1.97804 -15.5658,-1.5 -15.5658,1.76635 0,5.02769 14.54018,6.75108 85.56469,10.14167 3.94914,0.18853 7.71878,0.42747 8.37697,0.53099 0.65819,0.10353 2.13912,-0.52717 3.29095,-1.40153 z m 1.96708,-19.2121 c 6.12785,-3.10522 18.49971,-13.73291 20.63814,-17.72863 0.70229,-1.31224 0.8104,-2.72129 0.24025,-3.13123 -0.57013,-0.40993 -1.56815,-2.30511 -2.21779,-4.211505 -1.85381,-5.440083 -4.68784,-6.566873 -8.20533,-3.262374 l -2.94324,2.765038 -1.33449,-2.493521 c -2.82287,-5.274563 -7.85388,-6.582837 -27.25078,-7.086327 -19.16344,-0.497431 -21.66009,-1.243029 -20.14517,-6.016129 0.62342,-1.96423 2.10154,-2.39096 9.59201,-2.769213 4.87026,-0.245937 9.25925,-0.851388 9.7533,-1.345445 3.99451,-3.994513 -18.60443,-6.176629 -27.75922,-2.680383 -6.42349,2.453152 -8.87926,5.678541 -8.87926,11.661932 0,4.920702 0.22699,5.123747 3.6688,3.281747 2.91123,-1.558047 2.90017,-0.975929 -0.0742,3.902485 -1.31392,2.155027 -2.39096,5.649465 -2.39342,7.765425 -0.006,5.06063 3.28346,6.85846 10.64196,5.81652 14.46316,-2.04795 16.87787,-2.16822 16.87787,-0.84065 0,0.74193 0.63844,1.34896 1.41876,1.34896 0.78032,0 2.5305,1.00244 3.8893,2.22765 2.96892,2.67701 9.36746,4.95261 13.92581,4.95261 h 3.31949 l -3.49806,3.49807 c -1.92395,1.92394 -3.49808,4.34727 -3.49808,5.38519 0,2.91952 7.50098,2.37133 14.23335,-1.04022 z m -72.42333,-16.3696 c 0.41137,-2.05684 0.74795,-5.24304 0.74795,-7.08044 0,-2.217656 1.04467,-4.101714 3.10753,-5.6044 2.08839,-1.521294 3.65826,-4.386825 4.78683,-8.737574 2.11817,-8.165739 2.10863,-10.985219 -0.0547,-16.162766 -1.962,-4.695734 -5.4603,-5.441933 -11.31611,-2.413771 -4.13843,2.140062 -18.92,17.82344 -23.93618,25.396487 -4.89274,7.386684 -4.85078,9.250474 0.18749,8.328234 16.65797,-3.049203 20.04487,-2.276041 20.04487,4.57584 0,4.3594 0.72204,5.43811 3.63999,5.43811 1.33234,0 2.30488,-1.30252 2.79232,-3.73972 z m 15.10845,-11.594401 c 0,-1.386864 -0.34164,-1.429325 -1.79506,-0.223098 -0.98728,0.819374 -1.77794,2.635499 -1.757,4.035839 0.0373,2.49612 0.0725,2.5005 1.79506,0.22309 0.96635,-1.277629 1.757,-3.093754 1.757,-4.035831 z"
       id="path45" />
    <path
       style="fill:#de8787;stroke:none;stroke-width:0.904599;stroke-dashoffset:0.5"
       d="m 768.53135,114.79383 c -3.44993,-2.75289 -9.21946,-11.98281 -9.21946,-14.749 0,-2.353599 0.61163,-2.81222 3.75047,-2.81222 8.35465,0 21.38042,6.95369 21.38042,11.41376 0,3.2863 -13.13657,8.36168 -15.91143,6.14746 z"
       id="path47" />
    <path
       style="fill:#de8787;stroke:none;stroke-width:0.904599;stroke-dashoffset:0.5"
       d="m 699.55229,98.308865 -0.0758,-4.308938 -6.16688,0.974852 c -9.83278,1.554354 -10.78967,-6.04e-4 -4.23144,-6.876175 3.74114,-3.922172 5.56507,-5.166739 5.58374,-3.810104 0.0179,1.299386 1.19624,2.149203 3.31869,2.393418 2.91274,0.335147 3.33181,0.933717 3.64641,5.208293 0.1955,2.656295 -0.17425,6.156669 -0.82168,7.778608 -1.10615,2.771171 -1.1817,2.689171 -1.25299,-1.359954 z"
       id="path63" />
    <path
       style="fill:#de8787;stroke:none;stroke-width:0.904599;stroke-dashoffset:0.5"
       d=""
       id="path77" />
    <path
       style="fill:#de8787;fill-opacity:1;stroke:none;stroke-width:0.904599;stroke-dashoffset:0.5"
       d="m 732.98429,100.56305 c 0,-2.025804 6.11134,-5.723858 9.45914,-5.723858 4.33512,0 3.19003,4.459389 -1.38135,5.379448 -2.13912,0.43053 -4.83171,1.04813 -5.98355,1.37244 -1.25248,0.35265 -2.09424,-0.0606 -2.09424,-1.02803 z"
       id="path79" />
    <path
       style="fill:#ff0000;stroke:none;stroke-width:0.904599;stroke-dashoffset:0.5"
       d="m 598.35453,517.40506 c -5.97455,-3.43492 -11.57171,-8.50454 -9.38952,-8.50454 0.6344,0 2.19879,0.79066 3.47642,1.75701 2.75612,2.08462 21.51588,2.64645 20.25519,0.60661 -0.41691,-0.67457 -4.35296,-3.03702 -8.74677,-5.24988 -4.39381,-2.21285 -9.33504,-5.12756 -10.98052,-6.47712 -4.14651,-3.40083 -2.17127,-6.22805 6.1115,-8.74754 l 6.45395,-1.9632 -5.98355,-0.84942 c -12.71381,-1.80486 -18.95587,-7.03729 -23.88023,-20.01768 -1.86813,-4.92431 -2.06351,-8.48555 -1.54294,-28.12266 0.665,-25.08518 2.5612,-34.92829 9.30056,-48.27889 3.47585,-6.88563 14.5842,-20.27877 16.81932,-20.27877 0.52134,0 0.62299,2.01945 0.22589,4.48766 -0.68058,4.23028 -0.59718,4.38479 1.45417,2.69402 1.19688,-0.98651 4.22088,-4.56149 6.71999,-7.94441 2.49911,-3.38292 6.85989,-7.59181 9.69063,-9.35309 33.76734,-21.00995 36.9655,-22.29505 55.48445,-22.29505 19.62577,0 28.10837,2.36128 46.84521,13.04017 10.84188,6.17923 18.84051,11.75199 24.36765,16.97728 l 8.22795,7.77861 -1.27544,6.04193 c -2.55768,12.11603 4.19019,23.24536 16.59139,27.36438 l 5.96583,1.98153 2.51424,8.63368 c 8.3649,28.72435 5.64222,43.22244 -11.26917,60.00766 -19.31775,19.17362 -45.86945,27.4035 -102.21556,31.6824 -15.14833,1.15035 -15.51897,1.04875 -25.70606,-7.04692 -6.03629,-4.79705 -7.45565,-4.56401 -3.53218,0.57992 1.75709,2.30367 2.72691,4.23258 2.15514,4.28649 -0.57176,0.0539 -4.01391,0.0208 -7.64923,-0.0736 -9.00602,-0.23379 -12.87659,1.45574 -15.00504,6.54985 -1.49428,3.5763 -2.32534,4.19443 -5.62649,4.18486 -2.13028,-0.006 -6.56584,-1.55925 -9.85678,-3.4513 z m -2.19451,-126.67981 c 2.27685,-4.65372 2.77836,-6.77565 1.82637,-7.72764 -0.95199,-0.95199 -1.70473,-0.45115 -2.74134,1.82395 -0.78594,1.72497 -1.88876,2.85214 -2.45071,2.50484 -0.56194,-0.3473 -1.02171,0.29543 -1.02171,1.42827 0,1.13285 -1.32745,4.32485 -2.94989,7.09333 -1.62243,2.76847 -2.60479,5.37867 -2.18302,5.80045 1.35099,1.35099 6.28456,-4.30958 9.5203,-10.9232 z m 75.77252,-37.35947 c 1.40211,-0.88655 0.84397,-1.51184 -2.65416,-2.97345 -2.43629,-1.01795 -4.95366,-1.85082 -5.59415,-1.85082 -2.1873,0 -2.52724,2.1977 -0.63294,4.092 2.10753,2.10753 6.17574,2.44295 8.88125,0.73227 z"
       id="path81" />
    <path
       style="fill:#ff0000;stroke:none;stroke-width:0.904599;stroke-dashoffset:0.5"
       d="m 777.76576,497.79568 c -0.9446,-1.03211 -0.0569,-3.34807 3.30272,-8.61631 11.27019,-17.67303 14.32576,-41.25458 7.6788,-59.26164 -7.43249,-20.13514 -4.76152,-25.67743 8.16063,-16.93339 5.8672,3.97017 8.43251,9.63482 10.96178,24.20558 3.14531,18.11961 0.56965,34.51654 -7.28678,46.3884 -3.61258,5.45899 -8.28316,9.35745 -15.79328,13.18245 -5.77715,2.94237 -5.33743,2.87758 -7.02387,1.03491 z"
       id="path83" />
    <path
       style="fill:#2c89a0;stroke:none;stroke-width:0.904599;stroke-dashoffset:0.5"
       d="m 983.56379,573.48508 c -7.31217,-2.54103 -27.23737,-8.65257 -44.27823,-13.58119 -30.57087,-8.84182 -53.16877,-16.22029 -59.1491,-19.31284 -4.26036,-2.20311 -12.48095,-10.3764 -15.8845,-15.79308 -8.09228,-12.87876 -10.52571,-25.67086 -11.56098,-60.77404 -0.54857,-18.60039 -1.32719,-28.71687 -2.40154,-31.20256 -3.70627,-8.57519 3.24288,-17.13929 20.83045,-25.67135 6.62826,-3.21549 15.55176,-6.76933 19.83,-7.89742 9.03584,-2.38257 11.57474,-3.99508 6.52206,-4.1423 l -3.53029,-0.10286 3.59013,-1.09352 c 2.65848,-0.80976 29.66046,-4.6843 32.64521,-4.6843 0.22305,0 0.0355,0.59873 -0.41676,1.3305 -1.40049,2.26605 2.13855,3.41892 10.5539,3.43801 8.33211,0.0189 10.06992,-1.04857 5.38519,-3.30793 -2.28805,-1.10349 -2.36136,-1.31076 -0.48794,-1.37959 1.21257,-0.0445 3.53174,0.96289 5.15373,2.23874 1.62198,1.27585 5.74581,3.23514 9.16407,4.35396 15.07437,4.93397 32.75274,17.65245 39.75794,28.60333 2.26907,3.54715 4.68057,6.79238 5.35897,7.21162 2.2551,1.39373 6.8739,11.87092 8.1748,18.54352 0.7057,3.62004 1.6106,10.35153 2.0108,14.95886 1.6772,19.30943 5.3834,29.05468 18.3641,48.28752 6.6341,9.82938 6.7444,10.13278 6.7444,18.54899 0,11.51908 -4.1753,20.1433 -14.8606,30.69528 -7.8078,7.71034 -21.1898,15.67275 -25.97439,15.45496 -1.23562,-0.0562 -8.22925,-2.18128 -15.54142,-4.72231 z m 21.87401,-79.49596 c 1.8634,-0.96118 4.8689,-2.04848 6.6789,-2.41622 1.81,-0.36774 3.2909,-1.12956 3.2909,-1.69293 0,-1.19252 -6.4479,-2.67314 -8.663,-1.98927 -0.83,0.25622 -2.9899,0.79036 -4.7999,1.18697 -2.11593,0.46363 -3.291,1.49635 -3.291,2.89227 0,4.10622 1.7363,4.623 6.7841,2.01918 z"
       id="path85" />
    <path
       style="fill:#2c89a0;stroke:none;stroke-width:0.904599;stroke-dashoffset:0.5"
       d="m 1044.1911,587.94722 c -1.8868,-1.19366 -1.3569,-1.48745 9.7755,-5.41986 6.2482,-2.20709 12.8995,-7.71471 12.8995,-10.68139 0,-2.93055 -3.9091,-2.28895 -9.1397,1.50009 -5.6,4.0566 -12.4596,6.52191 -15.2102,5.46644 -2.9416,-1.12881 -2.4847,-7.95885 0.9913,-14.81845 1.633,-3.22249 3.5255,-6.20298 4.2056,-6.62331 0.6801,-0.42034 2.364,-2.97411 3.7419,-5.67506 2.7491,-5.38875 2.7091,-10.82137 -0.1963,-26.66926 -2.2767,-12.4183 -1.4167,-14.41416 8.0632,-18.71256 11.4254,-5.18054 24.6585,-8.31827 35.8277,-8.49523 8.2248,-0.1303 10.6368,0.31012 15.5525,2.83986 4.1638,2.14277 6.1204,3.99534 6.8815,6.51558 2.3527,7.79096 3.5234,10.17354 4.7942,9.75705 3.045,-0.99802 1.9881,-7.80526 -2.5939,-16.70674 -0.2541,-0.49364 1.6023,-0.89552 4.1253,-0.89306 11.0404,0.0108 17.6697,9.47591 17.5985,25.12642 -0.066,14.46236 -7.7996,28.35523 -19.7865,35.54401 -8.8631,5.31539 -9.9586,5.59139 -12.4206,3.12937 -1.5345,-1.53445 -2.2945,-1.726 -2.6475,-0.66718 -0.293,0.87908 -2.6203,1.4852 -5.7026,1.4852 -6.8573,0 -10.9529,1.66029 -11.9655,4.85057 -0.4529,1.42685 -2.729,4.70353 -5.058,7.28152 -4.1126,4.55208 -4.3039,4.62592 -6.6341,2.56031 -1.7526,-1.55349 -2.5406,-1.72364 -2.9227,-0.63107 -0.2878,0.82274 -1.5554,1.49589 -2.817,1.49589 -1.2615,0 -2.2937,0.80778 -2.2937,1.79506 0,2.16355 4.3592,2.41749 5.1359,0.29918 0.4336,-1.18243 0.875,-1.18818 2.1067,-0.0275 2.4137,2.27467 -4.7336,4.70228 -18.2972,6.2147 -13.6573,1.52289 -11.8904,1.50279 -14.0138,0.15939 z m 71.0627,-32.50293 c -0.9026,-1.4605 -5.3062,0.9979 -5.3062,2.96231 0,0.85443 0.396,1.94946 0.8799,2.43339 1.1291,1.1291 5.3094,-3.96676 4.4263,-5.3957 z m 5.0004,-5.29465 c 1.0916,-1.66602 1.6458,-3.36803 1.2316,-3.78224 -1.0302,-1.03022 -5.5546,3.20677 -5.5546,5.20177 0,2.57695 2.1716,1.86386 4.323,-1.41953 z m 4.6711,-10.22025 c 0.9082,-4.13507 -0.1692,-6.14438 -1.8606,-3.4699 -1.4407,2.27812 -1.4737,7.1456 -0.048,7.1456 0.6059,0 1.4649,-1.65407 1.9089,-3.6757 z m 1.4522,-7.8177 c -0.3977,-0.39765 -1.4299,-0.44017 -2.2937,-0.0945 -0.9547,0.38202 -0.6711,0.66559 0.723,0.72301 1.2615,0.052 1.9683,-0.23087 1.5707,-0.62853 z m -17.6266,-1.6704 c 0,-0.65819 -0.2374,-1.19671 -0.5277,-1.19671 -0.2902,0 -0.8605,0.53852 -1.2673,1.19671 -0.4068,0.65819 -0.1693,1.19671 0.5277,1.19671 0.697,0 1.2673,-0.53852 1.2673,-1.19671 z m 16.754,-9.6443 c 0,-0.61935 -0.5386,-1.12608 -1.1967,-1.12608 -0.6582,0 -1.1968,0.83956 -1.1968,1.86568 0,1.02613 0.5386,1.53287 1.1968,1.12609 0.6581,-0.40679 1.1967,-1.24635 1.1967,-1.86569 z m 1.1967,-3.5195 c 0,-0.65819 -0.5385,-1.19671 -1.1967,-1.19671 -0.6582,0 -1.1967,0.53852 -1.1967,1.19671 0,0.65819 0.5385,1.19671 1.1967,1.19671 0.6582,0 1.1967,-0.53852 1.1967,-1.19671 z"
       id="path89" />
    <path
       style="fill:#0b2822;stroke:none;stroke-width:0.904599;stroke-dashoffset:0.5"
       d="m 479.28197,132.5371 c -4.27823,-0.83278 -10.3581,-1.8832 -13.51082,-2.33425 l -5.73222,-0.8201 2.54504,-4.11796 c 1.39977,-2.26487 5.18952,-11.5181 8.42166,-20.56273 9.54352,-26.705956 12.69994,-29.712782 33.22278,-31.648149 11.98024,-1.129773 13.41005,-1.036852 18.46718,1.200154 7.50773,3.321029 9.7311,7.798638 8.91581,17.955443 -0.82456,10.272332 -8.15389,25.149902 -17.2074,34.928772 l -6.65881,7.19231 -10.3423,-0.13967 c -5.68827,-0.0768 -13.84268,-0.82104 -18.12092,-1.65382 z m 20.34406,-11.89804 c 0,-0.29025 -0.53852,-0.86055 -1.19671,-1.26733 -0.65819,-0.40679 -1.19671,-0.16931 -1.19671,0.52773 0,0.69703 0.53852,1.26733 1.19671,1.26733 0.65819,0 1.19671,-0.23748 1.19671,-0.52773 z m -9.57367,-1.86569 c 0,-0.65819 -1.10882,-1.19671 -2.46405,-1.19671 -1.35522,0 -2.13122,0.53852 -1.72444,1.19671 0.40679,0.65819 1.51561,1.19671 2.46405,1.19671 0.94844,0 1.72444,-0.53852 1.72444,-1.19671 z"
       id="path91" />
    <path
       style="fill:#0b2822;stroke:none;stroke-width:0.904599;stroke-dashoffset:0.5"
       d="m 376.0013,120.54809 c -9.74379,-1.48308 -20.05952,-3.35266 -22.92385,-4.15462 -14.33573,-4.01375 -16.33748,-9.56753 -6.86323,-19.041784 4.75793,-4.757927 5.56284,-6.171058 4.66328,-8.187048 -1.44624,-3.241136 2.02117,-15.221194 5.87996,-20.315573 4.20678,-5.553786 15.29146,-8.843356 32.37267,-9.60715 17.5599,-0.785199 27.92604,2.025723 35.52124,9.632066 4.71303,4.719952 7.97515,11.750791 7.94726,17.128736 -0.0204,3.928831 -5.53882,14.307213 -9.95651,18.724903 -5.82112,5.82112 -24.71067,18.869 -27.03567,18.67478 -1.03905,-0.0868 -9.86136,-1.37123 -19.60515,-2.85431 z m 0.0562,-7.05184 c 1.68323,-1.68322 -2.86978,-3.06364 -10.16368,-3.08151 -7.68862,-0.0188 -9.71048,1.50154 -4.78683,3.59956 2.89196,1.2323 13.57018,0.86229 14.95051,-0.51805 z"
       id="path93" />
    <path
       style="fill:#e580ff;stroke:none;stroke-width:0.904599;stroke-dashoffset:0.5"
       d="m 1095.5871,248.40862 c -5.5946,-0.97893 -22.8272,-5.03826 -38.2947,-9.02073 -40.6148,-10.45728 -55.4201,-13.84158 -67.91319,-15.52413 -6.08826,-0.81996 -11.06956,-1.90824 -11.06956,-2.41841 0,-0.51017 4.8463,-9.40326 10.76956,-19.76243 10.20173,-17.84178 17.57089,-34.29809 20.34279,-45.4282 l 1.2457,-5.00182 28.9967,0.52476 c 50.568,0.91513 68.2748,1.58018 76.2668,2.86451 10.8091,1.73703 24.3301,4.94113 25.5567,6.05617 1.8557,1.68708 -6.2198,27.08532 -18.6478,58.6494 -10.505,26.68009 -12.5732,31.0479 -14.6559,30.95219 -1.3338,-0.0613 -7.0024,-0.91238 -12.5971,-1.89131 z m -86.5494,-64.53538 c 0.744,-1.93895 -1.3594,-4.01579 -4.1013,-4.04938 -1.9017,-0.0233 -1.937,2.65195 -0.06,4.52917 1.9561,1.95616 3.2851,1.80292 4.1611,-0.47979 z"
       id="path95" />
    <path
       style="fill:#e580ff;stroke:none;stroke-width:1.2793;stroke-dashoffset:0.5"
       d="m 73.95947,407.91903 c -9.773623,-7.94633 -20.435756,-16.18776 -23.693631,-18.31429 -3.257874,-2.12653 -9.591448,-8.5426 -14.07461,-14.25795 -7.533811,-9.80839 -1.634984,-11.85427 11.536007,-34.67033 1.396232,-3.34166 2.539786,-8.19454 2.541233,-10.7842 0.0063,-11.22643 8.177535,-19.64074 28.586453,-29.43676 11.144885,-5.3494 23.710248,-3.93908 40.335918,4.52723 11.87716,6.04822 13.34992,7.36335 15.989,14.27766 6.13241,16.06673 3.27481,40.43968 -7.16714,61.12967 -7.60406,15.06692 -30.466016,42.34007 -35.241942,42.04185 -0.572585,-0.0358 -9.037666,-6.56655 -18.811288,-14.51288 z"
       id="path101" />
    <path
       style="fill:#aa4400;fill-opacity:1;stroke:none;stroke-width:1.2793;stroke-dashoffset:0.5"
       d="m 4.5709808,765.55504 v -30.96275 l 15.4416522,-6.61376 c 8.492909,-3.63757 19.345437,-9.34355 24.11673,-12.67995 4.771295,-3.3364 15.529308,-9.95742 23.906699,-14.71339 19.4214,-11.02581 114.211088,-61.5504 124.752308,-66.4952 4.38712,-2.05796 14.08321,-9.36488 21.54687,-16.2376 7.46368,-6.87272 15.40724,-12.9569 17.65238,-13.52039 2.6106,-0.65522 9.79016,1.10369 19.91699,4.87943 8.7092,3.24719 22.66326,7.97515 31.00902,10.50659 24.82862,7.53102 49.70076,18.2628 68.5998,29.5993 9.77362,5.86266 30.3363,16.7857 45.69485,24.27343 37.57531,18.31901 47.49324,24.01347 100.81209,57.88196 25.19494,16.004 48.10511,30.28555 50.91145,31.73677 2.80635,1.45122 8.38226,5.37879 12.39092,8.72792 4.00866,3.34915 12.32333,9.05077 18.47704,12.67027 6.15371,3.61951 12.71171,7.75577 14.57336,9.19169 3.05419,2.35579 -25.58428,2.61605 -293.20868,2.66462 L 4.5709808,796.5178 Z"
       id="path111" />
    <path
       style="fill:#aa4400;fill-opacity:1;stroke:none;stroke-width:1.2793;stroke-dashoffset:0.5"
       d="m 1209.5613,409.00702 c 0,-2.78683 -3.2709,-4.32976 -19.8857,-9.38016 -10.9371,-3.32458 -29.4055,-9.02991 -41.0408,-12.67851 -11.6352,-3.6486 -27.6284,-8.23133 -35.5404,-10.18386 -7.912,-1.95251 -32.2826,-8.41313 -54.1569,-14.35693 -44.8809,-12.19526 -69.66444,-18.03577 -93.08209,-21.9358 -8.8428,-1.4727 -23.31284,-4.54579 -32.15564,-6.82909 -8.8428,-2.28329 -38.8879,-8.76134 -66.76689,-14.39566 -52.23777,-10.55721 -60.14263,-12.44523 -82.72849,-19.7591 l -13.257,-4.29296 9.026,-6.49886 c 4.9643,-3.57438 19.68813,-12.04731 32.71963,-18.82875 13.03149,-6.78144 28.6439,-15.6505 34.69424,-19.70901 12.78235,-8.57428 21.35268,-13.0675 38.92525,-20.40758 16.56658,-6.91987 18.49074,-8.18531 15.4379,-10.15287 -4.69871,-3.02833 0.14683,-5.26643 11.40194,-5.26643 6.27465,0 12.13195,0.63897 13.01623,1.41994 0.88428,0.78096 6.02237,2.43427 11.41796,3.67402 5.3956,1.23975 10.17323,2.84153 10.61697,3.55949 0.44373,0.71797 4.40654,1.79052 8.80624,2.38344 17.20809,2.31902 58.44475,11.24567 85.84995,18.58426 15.824,4.23735 35.6251,9.30937 44.0025,11.27115 8.3774,1.96178 17.0585,4.99562 19.2913,6.74185 3.336,2.60903 6.6854,3.12736 18.7898,2.90781 12.0619,-0.21879 15.9249,0.37464 21.3263,3.27604 3.6279,1.94877 17.6392,5.93695 31.1361,8.86261 32.4863,7.04192 61.1122,14.21449 77.9164,19.52296 11.8798,3.75282 13.6485,4.81252 13.393,8.02429 -0.6346,7.97739 -0.2669,8.37883 6.4268,7.0164 3.4906,-0.71047 8.5055,-1.48542 11.1443,-1.72211 4.3819,-0.39304 4.7024,-0.0506 3.698,3.95118 -2.1183,8.44004 -9.3522,18.8717 -12.4096,17.89523 -2.0232,-0.6462 -2.2365,-0.4648 -0.7313,0.62227 2.6776,1.93389 -6.7339,15.14788 -22.037,30.94057 -5.8627,6.05033 -16.6925,19.5684 -24.0661,30.04013 -10.4479,14.83772 -14.2642,19.03953 -17.2927,19.03953 -2.7388,0 -3.8862,-0.98483 -3.8862,-3.33549 z m -157.8517,-61.99829 c -0.5624,-0.56237 -2.0221,-0.62249 -3.2438,-0.13361 -1.3501,0.54026 -0.9491,0.94128 1.0225,1.02249 1.7841,0.0735 2.7836,-0.32651 2.2213,-0.88888 z"
       id="path222" />
    <path
       style="fill:#aa4400;fill-opacity:1;stroke:none;stroke-width:1.2793;stroke-dashoffset:0.5"
       d="m 397.4358,234.8678 c -1.7365,-1.73651 -5.93079,-8.92365 -9.32063,-15.97143 -9.80089,-20.37687 -20.19391,-24.73796 -38.96642,-16.35096 -14.68918,6.56269 -28.09856,1.92628 -28.09856,-9.71533 0,-13.53454 -7.71347,-19.08658 -26.54516,-19.10684 -16.52376,-0.0178 -21.68993,-4.78913 -18.85359,-17.41276 1.28813,-5.73303 0.93691,-7.19383 -2.79628,-11.63048 -6.84311,-8.13257 -5.64803,-16.17942 3.21654,-21.65802 12.34492,-7.62958 19.16336,-7.65693 63.01879,-0.2528 55.1079,9.30388 105.98639,16.22116 150.35371,20.44159 58.61385,5.57564 59.23408,5.66406 59.23408,8.4445 0,1.36471 -8.37739,7.54931 -18.61643,13.74356 -10.23903,6.19425 -26.4931,16.38436 -36.12016,22.64469 -19.42134,12.62942 -26.54893,15.51618 -30.40627,12.31488 -2.04572,-1.69781 -3.79621,-0.58334 -10.02269,6.38109 -4.14925,4.64099 -9.47739,11.29409 -11.84034,14.78467 -3.5381,5.22655 -5.30185,6.34651 -9.99476,6.34651 -4.58816,0 -5.69851,0.66581 -5.69851,3.41705 0,2.72468 -0.79203,3.21826 -3.90893,2.43597 -2.14991,-0.53959 -7.29058,0.19639 -11.42371,1.63553 -9.46396,3.29529 -9.42242,3.29684 -13.21068,-0.49142 z m 6.54209,-16.98598 c 0,-0.83977 -2.39839,-2.36293 -5.32975,-3.38481 -6.49603,-2.26452 -6.51706,-2.26506 -6.51706,-0.16556 0,0.93083 1.47821,1.69241 3.28492,1.69241 1.80671,0 3.75561,0.76158 4.33089,1.6924 1.30313,2.10852 4.231,2.22309 4.231,0.16557 z m -62.61888,-50.71895 c 0,-1.94082 -23.07518,-4.18546 -25.78844,-2.50857 -1.43354,0.88597 -0.76189,1.67216 2.11187,2.47202 6.19197,1.72343 23.67657,1.75042 23.67657,0.0366 z m -44.00245,-18.8351 c 0,-0.93082 -0.76159,-1.6924 -1.69241,-1.6924 -0.93082,0 -1.6924,0.76158 -1.6924,1.6924 0,0.93082 0.76158,1.6924 1.6924,1.6924 0.93082,0 1.69241,-0.76158 1.69241,-1.6924 z"
       id="path224" />
    <path
       style="fill:#aa4400;fill-opacity:1;stroke:none;stroke-width:1.2793;stroke-dashoffset:0.5"
       d="m 4.5709808,465.07913 c 0,-14.74346 -0.5014709,-41.77958 -1.1143799,-60.08028 l -1.11438,-33.27399 h 8.7301901 c 5.751766,0 8.79679,0.72173 8.925408,2.1155 0.418475,4.53485 0.681199,5.50037 1.497184,5.50221 0.46541,10e-4 4.119163,3.55265 8.119451,7.89245 4.000287,4.3398 16.28698,14.39529 27.30376,22.34554 11.016781,7.95024 21.26037,15.68485 22.763533,17.18801 3.621548,3.62155 1.642918,7.14825 -8.140695,14.50996 -8.61278,6.48072 -10.446271,10.00224 -7.790937,14.96378 1.585967,2.9634 0.877893,4.11017 -5.40655,8.75626 -6.314552,4.66834 -49.879421,26.88684 -52.7183195,26.88684 -0.5798456,0 -1.0542647,-12.06283 -1.0542647,-26.80628 z M 70.48576,434.50986 c 1.465251,-2.73785 1.22132,-3.0876 -1.632857,-2.34122 -1.845495,0.48261 -3.355444,1.93102 -3.355444,3.21868 0,3.395 2.98253,2.87035 4.988301,-0.87746 z"
       id="path232" />
    <path
       style="fill:#c8b7b7;fill-opacity:1;stroke:none;stroke-width:1.2793;stroke-dashoffset:0.5"
       d="m 585.91113,750.25287 c -3.72329,-2.15756 -25.04756,-14.58278 -47.38727,-27.61161 -61.40838,-35.81419 -75.03908,-43.00912 -110.00614,-58.06642 -33.22774,-14.30833 -53.31066,-24.5179 -53.31066,-27.10158 0,-0.81701 1.33276,-1.83377 2.9617,-2.25945 2.67238,-0.69837 2.65469,-0.79315 -0.18107,-0.9703 -2.06203,-0.12881 -2.80778,-1.0693 -2.16862,-2.73492 0.53579,-1.39623 0.23648,-2.5386 -0.66513,-2.5386 -0.90161,0 -1.63929,1.2604 -1.63929,2.8009 0,2.53971 -0.27618,2.55601 -2.9617,0.17472 -1.62894,-1.4444 -4.48487,-2.90298 -6.34651,-3.24129 -13.00971,-2.36422 7.65736,-34.90882 31.88539,-50.21021 34.63139,-21.8717 68.04464,-32.72622 100.96818,-32.8002 19.9197,-0.0448 34.08493,3.46179 47.38726,11.73056 4.1887,2.60371 10.61299,6.24854 14.27621,8.09963 9.85936,4.9821 24.72166,20.56781 31.12713,32.6422 9.34931,17.6236 15.77741,46.0764 16.78104,74.27831 0.51073,14.35167 0.0479,29.67136 -1.15057,38.07905 -3.0227,21.20626 -8.59574,43.68615 -10.82585,43.66808 -1.08597,-0.008 -5.02082,-1.78129 -8.7441,-3.93887 z M 373.7671,621.3127 c 0.003,-2.97034 -2.8229,-2.49736 -4.89415,0.81924 -1.86318,2.98342 -1.71845,3.1927 1.40806,2.03613 1.91658,-0.70899 3.48532,-1.9939 3.48609,-2.85537 z"
       id="path234" />
    <path
       style="fill:#ff0066;fill-opacity:1;stroke:none;stroke-width:1.2793;stroke-dashoffset:0.5"
       d="m 1259.4872,287.13693 c -6.5158,-1.67453 -23.5881,-5.85791 -37.9385,-9.2964 -22.9834,-5.50703 -55.5253,-15.0931 -57.3162,-16.88401 -0.3501,-0.35009 0.4972,-2.41616 1.8828,-4.59127 4.8209,-7.56798 7.7431,-19.76976 10.3216,-43.09933 4.5585,-41.24379 5.6023,-44.01684 18.739,-49.78619 10.226,-4.49103 25.4952,-5.52874 49.4519,-3.36083 27.411,2.48049 35.1698,4.95338 44.0707,14.04615 13.7711,14.06792 17.9949,33.66251 11.5769,53.70562 -12.5193,39.09689 -22.694,62.77029 -26.8472,62.46488 -1.1518,-0.0847 -7.4253,-1.52409 -13.941,-3.19862 z M 1241.717,165.25179 c 0,-0.93082 -0.7167,-1.6924 -1.5926,-1.6924 -0.8758,0 -2.0632,0.76158 -2.6384,1.6924 -0.5753,0.93082 0.1413,1.6924 1.5925,1.6924 1.4511,0 2.6385,-0.76158 2.6385,-1.6924 z"
       id="path236" />
    <path
       style="fill:#f6ffd5;fill-opacity:1;stroke:none;stroke-width:1.2793;stroke-dashoffset:0.5"
       d="m 201.15987,207.71952 c -9.044,-0.85851 -11.38566,-1.78041 -14.89993,-5.86599 -5.74787,-6.6823 -4.76916,-11.90488 2.35978,-12.59223 5.34094,-0.51497 5.50147,-0.76015 5.54047,-8.46202 0.0449,-8.87364 5.82743,-24.44078 11.9828,-32.25912 4.85132,-6.16198 18.93485,-13.75161 25.51789,-13.75161 5.07381,0 17.89029,2.77747 25.58093,5.54366 6.71756,2.4162 10.28154,10.16164 9.07475,19.72181 -1.69249,13.40803 -10.67512,37.84835 -15.41019,41.92874 -8.05166,6.93841 -21.16141,8.45022 -49.7465,5.73676 z"
       id="path238" />
    <path
       style="fill:#f6ffd5;fill-opacity:1;stroke:none;stroke-width:1.2793;stroke-dashoffset:0.5"
       d="m 256.75479,212.83618 c 0.0221,-3.80389 8.92816,-18.86974 13.86954,-23.46221 4.98696,-4.63483 27.03276,-7.2755 33.19719,-3.97639 5.49887,2.9429 4.62645,9.27055 -2.34155,16.9833 -7.30651,8.08742 -16.2053,11.50362 -32.47115,12.46547 -10.47504,0.61943 -12.26759,0.32538 -12.25403,-2.01017 z m 29.60115,-18.81355 c 0.57528,-0.93082 0.23944,-1.6924 -0.74632,-1.6924 -0.98575,0 -1.79228,0.76158 -1.79228,1.6924 0,0.93082 0.33584,1.6924 0.74632,1.6924 0.41048,0 1.217,-0.76158 1.79228,-1.6924 z"
       id="path240" />
    <path
       style="fill:#bc5fd3;fill-opacity:1;stroke:none;stroke-width:1.2793;stroke-dashoffset:0.5"
       d="m 499.59862,133.70295 c -3.72329,-0.28414 -14.05691,-1.3667 -22.96361,-2.4057 l -16.19399,-1.88909 3.88923,-7.68221 c 2.13908,-4.22522 3.47918,-8.34569 2.978,-9.15662 -0.50118,-0.81092 -0.25516,-1.47441 0.54672,-1.47441 0.80188,0 2.8557,-3.9983 4.56404,-8.88511 4.3605,-12.473397 9.38689,-21.174102 13.96531,-24.173998 2.15361,-1.411098 9.67845,-3.296284 16.72186,-4.189302 14.52045,-1.841014 22.63644,0.295759 26.16486,6.888667 2.94263,5.498355 1.14873,18.566366 -3.97598,28.963713 -4.26601,8.65516 -16.32555,25.14574 -18.08064,24.724 -0.46541,-0.11183 -3.89252,-0.43581 -7.6158,-0.71994 z"
       id="path242" />
    <path
       style="fill:#8080ff;fill-opacity:1;stroke:none;stroke-width:1.2793;stroke-dashoffset:0.5"
       d="m 372.06457,119.39336 c -30.29993,-5.09825 -36.36957,-9.81708 -26.23442,-20.395893 2.94608,-3.075047 4.93008,-7.570152 5.81667,-13.178713 3.09703,-19.591659 9.78699,-24.17995 36.767,-25.21654 25.30932,-0.9724 35.37682,3.558228 41.73824,18.783264 2.29495,5.492591 2.33338,7.062259 0.29249,11.946802 -1.29228,3.092867 -4.78658,8.398961 -7.76512,11.79132 -6.44471,7.34013 -24.7073,19.8834 -28.6257,19.66095 -1.52287,-0.0864 -11.41799,-1.61248 -21.98916,-3.39119 z m -0.24232,-7.45224 c 0,-2.66645 -3.36487,-3.17812 -9.71228,-1.47688 -5.43949,1.45791 -2.96263,4.01549 3.88875,4.01549 4.0482,0 5.82353,-0.77391 5.82353,-2.53861 z m 5.07721,0.8462 c 0,-0.93082 -0.76158,-1.6924 -1.6924,-1.6924 -0.93083,0 -1.69241,0.76158 -1.69241,1.6924 0,0.93083 0.76158,1.69241 1.69241,1.69241 0.93082,0 1.6924,-0.76158 1.6924,-1.69241 z"
       id="path246" />
    <path
       style="fill:#ff0066;fill-opacity:1;stroke:none;stroke-width:1.2793;stroke-dashoffset:0.5"
       d="m 325.35837,262.15577 c -1.30148,-3.39161 3.44392,-22.874 7.51544,-30.85484 3.95817,-7.75865 9.39377,-9.96049 28.11362,-11.3882 11.51257,-0.87803 12.24612,-0.70752 17.62262,4.09638 5.25393,4.69439 5.60365,5.68743 5.50985,15.64541 -0.10916,11.58939 -3.28177,17.91741 -10.75745,21.45661 -2.24334,1.06206 -13.75286,2.27656 -25.57672,2.69888 -17.5978,0.62856 -21.66653,0.32845 -22.42736,-1.65424 z"
       id="path248" />
    <path
       style="fill:#ff0066;fill-opacity:1;stroke:none;stroke-width:1.2793;stroke-dashoffset:0.5"
       d="m 389.18068,264.94096 c 3.40465,-8.11797 5.96146,-11.58361 10.96639,-14.86442 8.36591,-5.48398 14.20719,-6.1689 19.06482,-2.23543 3.61848,2.93007 3.87128,3.84272 2.12564,7.67398 -2.7002,5.92628 -10.84095,9.77869 -22.99231,10.88054 -8.30616,0.75318 -9.97913,0.48763 -9.16454,-1.45467 z"
       id="path250" />
    <path
       style="fill:#aad400;fill-opacity:1;stroke:none;stroke-width:3.02362;stroke-dashoffset:0.5"
       d="m 1571.7519,376.87497 c -15.4,-3.5301 -50.5,-13.83147 -78,-22.89191 -27.5,-9.06046 -63.95,-19.46929 -81,-23.13075 -17.05,-3.66145 -31,-8.27651 -31,-10.25567 0,-1.97916 -1.35,-3.24385 -3,-2.81043 -1.65,0.43343 -16.086,-2.67453 -32.0801,-6.90658 -19.8028,-5.23985 -28.4565,-9.31954 -27.1255,-12.78804 1.075,-2.80138 -0.689,-5.09342 -3.9199,-5.09342 -3.231,0 -5.8745,1.8 -5.8745,4 0,4.94356 -4.1939,5.02015 -11.7886,0.21532 -4.9263,-3.11667 -4.203,-8.32119 4.8558,-34.93875 16.129,-47.39209 16.9829,-57.09706 6.7507,-76.72788 -14.1256,-27.10067 -32.4768,-34.56514 -84.7507,-34.47302 -53.5563,0.0944 -54.562,0.89048 -58.7171,46.47738 -3.7946,41.6329 -10.4383,56.98898 -25.4024,58.71485 -6.6173,0.7632 -11.8349,-0.92567 -13.1078,-4.24282 -1.1631,-3.03089 4.2472,-21.98358 12.0227,-42.11709 15.8188,-40.95995 17.4936,-54.75006 7.1374,-58.76768 -3.85,-1.49359 -29.5,-4.3534 -57,-6.35514 -27.5,-2.00173 -59.45,-4.44222 -71,-5.42332 l -20.99998,-1.78381 v 11.90963 c 0,11.78998 -8.30952,31.92129 -17.9604,43.51234 -2.74764,3.3 -6.58056,10.76717 -8.51764,16.59371 l -3.52196,10.59371 -24,-7.48729 c -15.37068,-4.79519 -34.78668,-7.33207 -54,-7.05559 -18.61256,0.26784 -36.83248,-2.02794 -48,-6.0482 -9.9,-3.56395 -24.55924,-6.5061 -32.57608,-6.53812 l -14.57612,-0.0582 12.57612,-37 c 6.91684,-20.35 13.85628,-37.96308 15.42092,-39.14018 3.838,-2.88733 15.15584,-30.323299 15.15236,-36.731347 -0.002,-3.390732 -6.43984,-5.273896 -19,-5.557648 -13.7002,-0.30952 -26.80448,-4.59252 -46.9972,-15.3606 C 726.778,35.225369 686.85768,20.846101 681.88464,26.838267 c -2.2932,2.763136 -7.72068,18.329488 -12.06104,34.591892 -27.43528,102.794231 -25.27228,99.558341 -58.46344,87.461711 -12.985,-4.73243 -37.0354,-9.36198 -53.44768,-10.28835 -33.95884,-1.91677 -48.30348,-9.25037 -19.96056,-10.20468 11.86376,-0.39944 14.13152,-1.15506 6.8,-2.26569 -11.16224,-1.69094 -14.27336,-6.63981 -7,-11.13498 4.42948,-2.73757 5.40064,-25.695671 1.51528,-35.820795 -3.23744,-8.436588 -22.30528,-18.179208 -35.5796,-18.179208 -17.67872,0 -26.29904,7.69482 -38.31952,34.205416 -12.26592,27.051937 -20.95708,34.787017 -34.96948,31.122697 -10.8019,-2.82476 -10.78526,-3.05807 1.35332,-18.97256 13.37124,-17.530629 12.84184,-32.129113 -1.69232,-46.663245 -10.99881,-10.998816 -13.6144,-11.692308 -44.099,-11.692308 -31.67945,0 -32.49987,0.24684 -36.55906,11 -8.2745,21.919916 -21.67106,46.026773 -26.63671,47.932273 -2.79275,1.07168 -11.18517,-0.94967 -18.64983,-4.49188 -7.46466,-3.542217 -16.70165,-6.440393 -20.52663,-6.440393 -3.82498,0 -8.95295,-2.492064 -11.39548,-5.537916 -4.6461,-5.793716 -66.04731,-30.462084 -75.82216,-30.462084 -3.10159,0 -7.69364,-2.47538 -10.20455,-5.500844 -2.51091,-3.02546 -12.18131,-6.704108 -21.48978,-8.174772 -9.30846,-1.47066 -43.02448,-11.145281 -74.924483,-21.499156 l -58,-18.8252276 783.656603,-1.0100496 c 431.01118,-0.5555272 784.27898,-0.387724 785.03958,0.372896 0.7606,0.7606204 0.9151,85.8815572 0.3432,189.1576362 l -1.0394,187.77468 z"
       id="path262" />
    <path
       style="fill:#ffcc00;fill-opacity:1;stroke:none;stroke-width:3.02362;stroke-dashoffset:0.5"
       d="m 638.58252,780.34893 c -15.25724,-11.27316 -16.30736,-13.17352 -12.22744,-22.12796 2.74908,-6.03356 3.01436,-10.83788 0.69064,-12.50924 -2.07492,-1.49248 -3.79536,-24.31356 -3.82324,-50.71356 -0.0417,-39.51824 -1.72132,-53.12628 -9.505,-77.01052 -27.48436,-84.33588 -111.33728,-112.03148 -202.96004,-67.03532 -26.3587,12.94484 -42.26504,26.8044 -63.48428,55.31536 l -8,10.74912 -33.10303,-10.295 c -20.85735,-6.48664 -36.57684,-14.04136 -42.4936,-20.42232 l -9.39058,-10.12732 -39.50639,21.1258 c -21.72852,11.6192 -44.48963,25.21684 -50.58024,30.21692 -6.09062,5.00008 -42.09062,24.69752 -80.000003,43.77208 -37.909384,19.07452 -72.076156,37.44176 -75.9261563,40.81604 -6.6316952,5.81228 -7,2.66492 -7,-59.81824 0,-49.9068 1.2165016,-66.03956 5,-66.30788 9.0385913,-0.64104 83.5150443,-28.4266 89.4930843,-33.38796 3.215284,-2.66844 4.419685,-6.23224 2.676444,-7.91956 -3.177052,-3.07512 -29.039324,0.7614 -42.169528,6.25564 -9.404892,3.93536 -9.1049,-3.90264 1.341624,-35.05304 9.730988,-29.01672 23.30342,-48.41632 39.865148,-56.98072 7.822777,-4.04532 11.793227,-9.167 11.793227,-15.21268 0,-5.0128 5.6693,-18.01656 12.59845,-28.89728 20.7661,-32.60864 27.21975,-50.20579 27.3137,-74.47622 0.10392,-26.84512 -9.69598,-41.48506 -35.58448,-53.15915 -15.643233,-7.05411 -16.799649,-7.05461 -35.250745,-0.0152 -27.89,10.64042 -41.93622,26.12564 -40.69656,44.86582 1.467528,22.1849 -3.337104,33.87192 -12.702969,30.89931 -4.296645,-1.36377 -7.677395,-0.55668 -7.677395,1.83277 0,2.34825 -3.6,4.26955 -8.0000003,4.26955 -7.8797572,0 -8,-2.66667 -8,-177.41895 V 14.160272 l 25.0000003,7.849572 c 13.75,4.317265 56.5,18.646221 94.999999,31.842127 38.5,13.195904 79.64759,25.65808 91.4391,27.69372 26.58722,4.58992 44.86394,13.747308 47.49153,23.795189 1.10133,4.21151 4.79249,7.65729 8.20256,7.65729 13.4435,0 0.61682,4.57812 -17.70283,6.31853 -43.23894,4.1078 -57.47562,15.64934 -73.61802,59.68147 -4.83919,13.2 -13.07664,28.59849 -18.30543,34.21887 -13.69547,14.72112 -12.45398,21.22858 3.49309,18.3095 39.8182,-7.28863 54.81934,-7.65347 57.22221,-1.39169 1.3166,3.43101 0.45034,9.86961 -1.92501,14.308 -5.65987,10.57555 0.0336,13.79775 14.36714,8.13078 6.23461,-2.46497 20.33566,-4.72785 31.33566,-5.02862 18.68771,-0.51096 20.08306,-1.2687 21.26584,-11.54838 1.47032,-12.77876 12.55549,-20.01955 27.93197,-18.24506 8.24984,0.95205 10.50559,3.13685 9.5469,9.2466 -4.54636,28.97396 -8.12005,41.39247 -14.86549,51.65717 l -7.66048,11.65716 11.89063,-3.28891 c 21.49973,-5.94675 31.89063,-4.768 31.89063,3.6177 0,5.02878 -4.38636,9.1334 -12.8237,12 -14.5211,4.93358 -23.95149,12.91502 -19.96719,16.89932 2.50259,2.50259 21.91248,-3.14511 74.79089,-21.76193 12.1,-4.26002 29.96852,-10.22838 39.70784,-13.26301 19.33612,-6.02485 28.92788,-17.83735 10.78684,-13.28423 l -10.28832,2.5822 6.16436,-12.35679 c 3.3904,-6.79624 5.03776,-14.17972 3.66076,-16.40774 -1.377,-2.22802 0.0927,-4.05094 3.26592,-4.05094 3.17324,0 7.0036,-4.05 8.51192,-9 2.52972,-8.30211 3.34024,-7.7593 10.4528,7 10.38464,21.54919 8.551,33.85531 -6.26212,42.02727 -12.44948,6.868 -18.55688,19.98394 -9.29328,19.95778 2.91128,-0.008 11.30292,-3.67886 18.64804,-8.15696 7.75476,-4.72785 16.5606,-7.1245 21,-5.71549 6.07112,1.92689 7.64524,0.45834 7.64524,-7.13252 0,-6.77457 4.7652,-12.6789 16.35896,-20.26955 19.94588,-13.05894 25.82,-13.39745 29.68232,-1.71053 2.96448,8.97021 2.97964,8.96691 4.58632,-1 3.90124,-24.20074 5.47532,-27.02167 16.32052,-29.24769 12.35144,-2.53519 45.05188,-25.2901 45.05188,-31.34979 0,-6.6221 -17.04476,-1.89115 -27.3724,7.59748 -5.38768,4.95 -12.36152,9 -15.4974,9 -3.13588,0 -8.72304,3.02689 -12.41592,6.72643 -6.28812,6.2995 -6.85832,5.72826 -8.9834,-9 -1.248,-8.64954 -3.55852,-19.58482 -5.1344,-24.30063 -2.42488,-7.25632 0.3528,-10.5543 18.07156,-21.45677 l 20.93684,-12.88257 33.19756,6.96671 c 18.25864,3.83169 33.17588,8.08724 33.14936,9.45677 -0.028,1.36953 -4.52648,10.32379 -10,19.89835 -5.47348,9.57456 -9.9518,22.77776 -9.9518,29.34043 0,8.80303 -6.07856,18.92339 -23.17916,38.59171 -41.82876,48.10948 -53.2398,63.9285 -48.31172,66.97421 2.744,1.69591 10.44916,-4.24822 19.04936,-14.69559 36.59852,-44.45941 70.21968,-80.60074 78.48268,-84.36562 6.63992,-3.02535 12.1044,-2.64423 20.50556,1.43018 9.30436,4.51246 11.24584,7.78381 10.34772,17.43552 -5.15592,55.40803 -5.42252,71.63637 -1.10896,67.50376 2.5128,-2.40742 5.9708,-17.49886 7.68444,-33.53654 2.31716,-21.68614 5.09096,-30.63281 10.82288,-34.90828 8.90308,-6.64088 33.11976,-4.32838 38.53948,3.6802 1.91376,2.82795 2.3798,17.93574 1.03568,33.57286 -2.90708,33.81954 0.69064,57.56887 8.72092,57.56887 4.70552,0 5.23064,-6.19863 3.01336,-35.5703 -3.34944,-44.36935 -0.77492,-56.4297 12.046,-56.4297 5.22272,0 10.57572,2.81409 11.89556,6.25353 3.93888,10.26461 8.9422,3.38511 16.1056,-22.14502 7.85388,-27.99103 6.10036,-27.47475 58.92392,-17.34859 l 35.2634,6.75992 -18.91836,13.64263 c -10.40508,7.50344 -32.41836,19.84814 -48.91836,27.43266 -24.30388,11.17171 -46.25504,23.70484 -63.88416,36.47501 -3.29052,2.38359 9.56476,8.80247 17.88416,8.92986 14.26944,0.21852 16.99856,5.48361 19.88116,38.35505 2.429,27.69896 1.84904,33.34333 -4.03016,39.22253 -6.48996,6.48996 -7.25332,6.23304 -13.88624,-4.67396 -24.36064,-40.05782 -87.52216,-60.89506 -130.34664,-43.00185 -24.53964,10.25332 -56.44336,36.66907 -67.902,56.22177 -8.41112,14.3525 -11.02556,24.94526 -12.5866,50.99594 -1.927,32.15832 -1.65676,33.39712 12.30296,56.40084 18.0964,29.82044 24.2944,33.97496 55.2898,37.0612 13.90276,1.38428 27.48008,4.2506 30.17188,6.3696 8.6274,6.7916 10.65124,30.09452 3.55432,40.9258 -8.20256,12.51864 -8.25536,24.5738 -0.1212,27.69512 11.03808,4.23572 17.06216,2.65344 19.53268,-5.13048 2.5764,-8.11752 20.98672,-13.90184 23.1918,-7.2866 0.83708,2.51124 4.70408,2.18688 10.42408,-0.87436 5.00132,-2.67664 18.52608,-7.32352 30.055,-10.32644 24.3236,-6.33548 97.04108,-44.46284 100.1242,-52.49728 3.40524,-8.87388 -15.73488,-6.5646 -37.65492,4.54312 -10.85372,5.5 -20.65732,10 -21.78572,10 -1.12844,0 -5.50892,-6.77676 -9.73444,-15.05944 l -7.68276,-15.05948 23.10524,-10.85532 c 17.79056,-8.35836 24.70416,-14.22472 30.05628,-25.50352 8.74328,-18.42504 6.59376,-46.33804 -5.33,-69.21424 -4.74584,-9.1049 -8.62872,-17.34106 -8.62872,-18.3026 0,-2.45732 60.48156,-20.52234 94,-28.07652 15.4,-3.47075 35.6572,-9.1719 45.016,-12.66922 15.80204,-5.90511 19.45396,-5.82424 51.1884,1.13351 23.07844,5.05992 36.84444,10.33654 42.40304,16.25343 10.0404,10.6875 6.769,17.3534 -8.5164,17.3534 -15.182,0 -24.091,3.69805 -24.091,10 0,12.07812 33.9793,11.20772 86.9245,-2.22655 l 28.9246,-7.33929 40.5633,14.09411 c 25.1423,8.73597 44.1795,13.18649 50.0754,11.70673 5.8336,-1.46416 9.5122,-0.63076 9.5122,2.15512 0,2.68844 4.0816,3.76224 10,2.63088 8.0137,-1.53192 10,-0.2968 10,6.21872 0,4.47168 2.4972,10.97208 5.5493,14.44532 6.6239,7.53784 15.2211,45.65292 12.1201,53.73396 -1.2025,3.13364 -13.32,9.68064 -26.9279,14.54884 -32.2802,11.54824 -43.0644,18.53648 -40.185,26.04012 3.3975,8.85372 12.8739,7.37316 37.4435,-5.85016 25.2857,-13.60876 34.0956,-14.8504 39.306,-5.53984 5.2902,9.45304 18.2576,3.7936 15.4969,-6.7634 -2.6985,-10.31924 8.6217,-16.064 86.3472,-43.81932 38.3156,-13.68228 60.5557,-23.74856 63.1407,-28.57868 5.7384,-10.72228 -5.882,-9.8506 -33.9072,2.54344 -12.4364,5.5 -26.289,10 -30.7834,10 -7.2637,0 -7.505,-0.66668 -2.1717,-6 3.3,-3.3 7.7585,-6 9.9077,-6 10.2606,0 46.9472,-23.04988 42.988,-27.00904 -1.7741,-1.77412 -28.0602,12.41504 -29.6576,16.00904 -0.7333,1.65 -4.6771,3 -8.7639,3 -4.0868,0 -8.4088,1.58272 -9.6043,3.51716 -1.1956,1.93444 -5.5886,4.4102 -9.7623,5.50164 -6.6465,1.73808 -8.9479,-3.2914 -18.5398,-40.51719 -6.0233,-23.37589 -15.4216,-52.06653 -20.8851,-63.75698 -10.9902,-23.51566 -9.9737,-28.8507 3.78,-19.83898 5.0274,3.29413 27.1336,10.01361 49.1248,14.93218 57.4904,12.85837 100.0475,25.1787 165.984,48.05253 l 58,20.12062 1.038,193.9945 1.0381,193.99452 -471.0381,-0.15848 -471.03804,-0.15848 z m 206.019,-105.85284 c 9.82472,-5.22384 22.21136,-9.49792 27.52588,-9.49792 15.59124,0 50.32648,-16.41928 45.32212,-21.42364 -3.00476,-3.00476 -1.59988,-5.84004 4.78504,-9.65716 8.75316,-5.23296 8.65964,-5.33584 -2.9614,-3.25768 -6.6,1.18024 -16.32512,3.37112 -21.6114,4.8686 -9.41676,2.66756 -9.54636,2.36572 -6.40052,-14.90372 1.76596,-9.69452 3.10508,-22.10112 2.97576,-27.57024 -0.5836,-24.68612 17.65064,-31.67172 36.66756,-14.04744 16.6804,15.45888 32.83904,22.30608 59.63728,25.2712 23.84726,2.63864 24.86626,3.2332 34.03266,19.8572 5.1971,9.4254 8.5337,19.52312 7.4147,22.43936 -1.1191,2.91624 -10.1812,7.35352 -20.1379,9.86068 -19.74238,4.9712 -25.96494,10.77604 -19.00846,17.73252 3.29684,3.29684 10.35596,2.4728 26.85256,-3.13456 20.926,-7.11296 22.6267,-7.16632 26.1776,-0.82116 5.7607,10.2938 12.7436,8.026 19.4002,-6.30052 3.6972,-7.95748 9.454,-13.404 15,-14.19164 15.0238,-2.13372 10.0737,-8.18304 -7.7671,-9.4918 -15.3266,-1.12432 -17.0668,-2.39368 -20.2555,-14.77452 -4.3954,-17.06652 -0.7728,-20.78496 22.843,-23.4468 15.6644,-1.7656 20.077,-0.6206 28.6514,7.43456 7.6554,7.19188 9.6036,12.17932 7.9627,20.38408 -2.4431,12.21544 2.6029,17.3308 12.757,12.9324 3.7447,-1.62208 10.8585,-2.55276 15.8085,-2.0682 9.579,0.93768 12.1566,-6.93492 4.709,-14.38252 -3.0548,-3.05472 3.2833,-11.06444 21.9977,-27.8 27.1913,-24.316 32.1713,-33.509 18.1525,-33.509 -9.659,0 -24.2938,8.74644 -44.8708,26.817 -17.114,15.02948 -19.9124,15.70916 -27.4219,6.66072 -4.6709,-5.62816 -4.137,-7.41024 3.8952,-13 28.688,-19.9646 37.3201,-30.69544 39.3779,-48.95228 2.653,-23.53728 -5.87,-40.25568 -25.198,-49.42744 -12.4411,-5.90364 -21.0495,-6.54868 -55.7928,-4.18056 -45.5885,3.10728 -41.8605,5.11864 -48.0384,-25.91744 -6.7555,-33.9378 -26.9412,-57.6597 -59.71496,-70.17614 -38.87208,-14.84538 -107.70656,-0.32204 -127.4564,26.89194 -7.53148,10.37784 -7.57632,12.1042 -1.42184,54.73996 6.835,47.35052 16.75492,72.41024 32.8342,82.94576 8.48196,5.5576 9.9372,9.54652 9.8714,27.05852 -0.0424,11.29696 -2.73652,29.53996 -5.98684,40.53996 l -5.90968,20 1.91032,-19 c 1.11112,-11.05132 0.2688,-19 -2.01316,-19 -2.15792,0 -4.225,4.95 -4.59352,11 -2.55316,41.91656 -2.3174,41 -10.54684,41 -10.8192,0 -44.78312,22.88988 -44.78312,30.18144 0,7.60796 8.7188,5.46492 35.32836,-8.68352 z m 32.6104,-92.734 c 0.0337,-2.87984 -1.73876,-4.1236 -3.93876,-2.76392 -2.2,1.35968 -3.97244,6.41592 -3.93876,11.23608 0.05,7.12492 0.7864,7.64184 3.93876,2.76392 2.13264,-3.3 3.90508,-8.35624 3.93876,-11.23608 z"
       id="path272" />
    <path
       style="fill:#ffcc00;fill-opacity:1;stroke:none;stroke-width:3.02362;stroke-dashoffset:0.5"
       d=""
       id="path274" />
    <path
       style="fill:#ffcc00;fill-opacity:1;stroke:none;stroke-width:3.02362;stroke-dashoffset:0.5"
       d="m 672.64426,560.22482 c -2.05129,-30.41534 3.17544,-34.83424 42.24367,-35.71465 26.60339,-0.59951 32.46841,0.45497 37,6.65229 6.73388,9.20913 6.87721,16.33312 0.38524,19.14697 -9.86606,4.27629 -76.39706,30.68874 -77.30267,30.68874 -0.50888,0 -1.55569,-9.34801 -2.32624,-20.77335 z"
       id="path276" />
    <path
       style="fill:#ffcc00;fill-opacity:1;stroke:none;stroke-width:3.02362;stroke-dashoffset:0.5"
       d="m 796.04579,348.51814 c -1.34547,-16.04879 -1.66535,-29.96058 -0.71085,-30.91509 2.47145,-2.47145 133.94125,23.97523 133.92366,26.9403 -0.0121,2.03234 -29.01385,9.42587 -122.37597,31.19776 -7.77585,1.81332 -8.56973,-0.18097 -10.83684,-27.22297 z"
       id="path278" />
    <path
       style="fill:#ffcc00;fill-opacity:1;stroke:none;stroke-width:3.02362;stroke-dashoffset:0.5"
       d="m 1271.6916,479.99817 c -9.3826,-35.26147 -9.7604,-41.09196 -3.137,-48.4134 5.2871,-5.84418 10.7298,-7.02684 25.7126,-5.58717 18.8878,1.81487 19.006,1.751 19.006,-10.27164 0,-6.65383 -2.4537,-14.9396 -5.4526,-18.41283 -8.3284,-9.64566 -19.8178,-43.23503 -17.1588,-50.16414 4.7418,-12.35695 14.104,-5.96736 21.7575,14.84918 7.6921,20.92182 23.2763,94.47732 20.3778,96.1814 -6.1284,3.60309 -56.0982,26.8186 -57.7252,26.8186 -1.1274,0 -2.6485,-2.25 -3.3803,-5 z"
       id="path280" />
    <path
       style="fill:#ffcc00;fill-opacity:1;stroke:none;stroke-width:3.02362;stroke-dashoffset:0.5"
       d=""
       id="path282" />
    <path
       style="fill:#ffcc00;fill-opacity:1;stroke:none;stroke-width:3.02362;stroke-dashoffset:0.5"
       d="m 1250.1196,412.86711 c -4.3611,-6.98318 -3.9718,-9.86055 2.5765,-19.04737 4.2425,-5.95187 11.3855,-14.13978 15.8734,-18.19537 8.0396,-7.26528 8.2884,-7.1214 16.9091,9.77654 l 8.7495,17.15034 -8.9206,7.22346 c -4.9063,3.9729 -11.274,7.22346 -14.1503,7.22346 -2.8764,0 -7.6307,0.92132 -10.5651,2.04737 -2.9345,1.12606 -7.6471,-1.65423 -10.4725,-6.17843 z"
       id="path284" />
    <path
       style="fill:#ffcc00;fill-opacity:1;stroke:none;stroke-width:3.02362;stroke-dashoffset:0.5"
       d=""
       id="path286" />
    <path
       style="fill:#ffcc00;fill-opacity:1;stroke:none;stroke-width:3.02362;stroke-dashoffset:0.5"
       d="m 1.5289783,543.7621 c -0.1406996,-21.57984 1.1738424,-38.35249 2.9212048,-37.27256 1.7473624,1.07993 10.7473629,-1.42584 19.9999999,-5.56837 9.252638,-4.14252 16.822978,-6.28582 16.822978,-4.76287 0,1.52295 -5.995084,15.38495 -13.322406,30.80443 -7.327323,15.41949 -16.212205,34.33544 -19.7441823,42.03544 l -6.4217768,14 z"
       id="path288" />
    <path
       style="fill:#ffcc00;fill-opacity:1;stroke:none;stroke-width:2.13802;stroke-dashoffset:0.5"
       d=""
       id="path298" />
    <path
       style="fill:#ffcc00;fill-opacity:1;stroke:none;stroke-width:1.51181;stroke-dashoffset:0.5"
       d="m 232.02028,232.76257 c 1.66852,-8.3426 3.93615,-9.6961 16.30787,-9.73378 11.84917,-0.0361 20.52795,4.65219 16.83939,9.09664 -2.26369,2.72758 -5.37387,3.47745 -24.67738,5.94975 l -9.78299,1.25295 z"
       id="path310" />
    <path
       style="fill:#ffcc00;fill-opacity:1;stroke:none;stroke-width:1.51181;stroke-dashoffset:0.5"
       d="m 474.78191,257.49817 c -4.39475,-4.94397 -7.49265,-17.62662 -7.45,-30.5 l 0.0365,-11 12.4524,-8.39028 c 25.48065,-17.16857 48.47509,-30.39884 49.19617,-28.30591 0.40907,1.18734 -0.40528,2.86896 -1.80968,3.73692 -1.94119,1.19972 -2.27261,6.90155 -1.38221,23.77977 1.13556,21.52523 1.02045,22.38086 -3.77816,28.08368 -2.72217,3.23511 -6.93487,6.50143 -9.36156,7.25848 -2.42669,0.75706 -4.86216,1.98074 -5.41216,2.71929 -0.94585,1.27012 -27.43849,16.11805 -28.75887,16.11805 -0.34165,0 -2.02122,-1.575 -3.73238,-3.5 z"
       id="path312" />
    <path
       style="fill:#ffcc00;fill-opacity:1;stroke:none;stroke-width:1.51181;stroke-dashoffset:0.5"
       d="m 360.66226,288.77591 c -2.84312,-1.65398 -3.11253,-2.70114 -1.26703,-4.92483 3.16142,-3.80927 13.17416,-6.27486 35.87793,-8.83475 10.45,-1.17826 21.025,-2.58151 23.5,-3.11833 2.475,-0.53682 4.5,-0.23973 4.5,0.6602 0,1.66714 -51.60667,18.49 -56.38079,18.37915 -1.44057,-0.0334 -4.24412,-1.0061 -6.23011,-2.16144 z"
       id="path316" />
    <path
       style="fill:#ffcc00;fill-opacity:1;stroke:none;stroke-width:0.904599;stroke-dashoffset:0.5"
       d="m 24.250687,564.09113 c -1.444545,-1.44455 -0.764538,-13.23134 1.06202,-18.40835 2.209535,-6.26249 10.130978,-20.66044 10.928275,-19.86314 0.90631,0.90631 -5.545603,30.78627 -7.43765,34.44508 -1.916315,3.70575 -3.414288,4.96476 -4.552645,3.82641 z"
       id="path946" />
    <path
       style="fill:#ffcc00;fill-opacity:1;stroke:none;stroke-width:0.904599;stroke-dashoffset:0.5"
       d="m 1023.3358,653.00522 c 3.291,-1.50054 6.7264,-3.62815 7.6344,-4.72803 1.6243,-1.9677 1.4023,-6.92817 -0.5439,-12.15154 -0.7933,-2.12893 -0.54,-2.07282 2.2916,0.50778 2.7111,2.47082 3.1834,2.59229 3.1834,0.81886 0,-4.91991 -4.9822,-9.11759 -6.2626,-5.27645 -0.2992,0.89781 -0.7707,0.67371 -1.2589,-0.59835 -0.4292,-1.11856 -0.2588,-2.03374 0.3788,-2.03374 0.6375,0 1.1591,-0.59613 1.1591,-1.32474 0,-0.72861 -0.7242,-1.04682 -1.6094,-0.70714 -1.0238,0.39286 -2.5679,-1.35515 -4.2433,-4.8035 -2.9841,-6.1423 -2.5643,-8.60124 0.4675,-2.73829 2.7933,5.40164 3.2567,3.90981 0.9886,-3.18274 -3.5329,-11.04763 0.8177,-16.37494 7.1891,-8.80301 3.4852,4.14193 7.965,15.39306 8.0065,20.10843 0.016,1.78533 0.5376,5.40013 1.1597,8.03289 1.9578,8.28438 -1.1048,11.92603 -5.2836,6.28273 l -1.9939,-2.6926 0.7058,3.41767 c 1.0077,4.87962 -1.8857,8.5453 -8.5325,10.81012 -8.2519,2.81168 -10.384,2.22948 -3.4364,-0.93835 z"
       id="path948" />
    <path
       style="fill:#ffcc00;fill-opacity:1;stroke:none;stroke-width:0.904599;stroke-dashoffset:0.5"
       d=""
       id="path950" />
    <path
       style="fill:#ffcc00;fill-opacity:1;stroke:none;stroke-width:0.904599;stroke-dashoffset:0.5"
       d="m 1107.0673,387.77624 c -5.2806,-2.43408 -19.6613,-3.29231 -29.5877,-1.76577 -3.1304,0.48141 -8.7561,0.49243 -12.5014,0.0245 -5.4896,-0.68588 -7.5762,-1.61726 -10.7631,-4.80414 -4.3233,-4.32333 -5.4814,-9.61375 -1.8591,-8.49261 1.1519,0.3565 6.1332,1.47728 11.0696,2.49062 23.0913,4.74015 54.0179,12.93557 52.4834,13.90788 -2.1916,1.38867 -3.2213,1.23023 -8.8417,-1.36046 z"
       id="path964" />
    <path
       style="fill:#ffcc00;fill-opacity:1;stroke:none;stroke-width:0.904599;stroke-dashoffset:0.5"
       d="m 1294.3904,483.81137 c 0,-1.91304 4.2861,-5.05296 6.8974,-5.05296 3.7196,0 8.5378,-2.078 12.4488,-5.36885 2.0913,-1.75975 4.2297,-2.61128 5.4151,-2.15639 1.3693,0.52546 1.6804,0.301 1.0335,-0.74574 -0.6329,-1.024 -0.222,-1.38914 1.2995,-1.15487 3.262,0.50223 7.5591,-2.25091 8.862,-5.67778 0.6255,-1.64506 1.6768,-2.65758 2.3362,-2.25003 0.6594,0.40754 1.2331,0.0361 1.2748,-0.82552 0.042,-0.86158 0.5757,-0.32025 1.1866,1.20296 0.6109,1.52322 1.5928,2.47155 2.1819,2.10742 0.5892,-0.36413 1.6689,0.058 2.3993,0.93818 2.5568,3.08072 -1.6829,5.32129 -20.8025,10.9935 -5.9237,1.75739 -12.6552,4.14512 -14.9589,5.30606 -5.795,2.92043 -9.5737,3.97979 -9.5737,2.68402 z"
       id="path966" />
  </g>
</svg>
